# Navegacao Renal 3D - centimetres, Y up
mtllib Kidney_Game_v003.mtl

o JunctionInterfaceMarker
g JunctionInterfaceMarker
usemtl MAT_RouteCyan
s 1
v -4.1849998 -1.0950000 -1.1100000
v -4.1849998 -1.0950000 -1.1400000
v -4.1784916 -1.0950000 -1.1114855
v -4.1732723 -1.0950000 -1.1156477
v -4.1703758 -1.0950000 -1.1216621
v -4.1703758 -1.0950000 -1.1283379
v -4.1732723 -1.0950000 -1.1343523
v -4.1784916 -1.0950000 -1.1385145
v -4.1793636 -1.0917459 -1.1114855
v -4.1748436 -1.0891362 -1.1156477
v -4.1723351 -1.0876881 -1.1216621
v -4.1723351 -1.0876881 -1.1283379
v -4.1748436 -1.0891362 -1.1343523
v -4.1793636 -1.0917459 -1.1385145
v -4.1817455 -1.0893637 -1.1114855
v -4.1791363 -1.0848437 -1.1156477
v -4.1776878 -1.0823353 -1.1216621
v -4.1776878 -1.0823353 -1.1283379
v -4.1791363 -1.0848437 -1.1343523
v -4.1817455 -1.0893637 -1.1385145
v -4.1849998 -1.0884917 -1.1114855
v -4.1849998 -1.0832726 -1.1156477
v -4.1849998 -1.0803761 -1.1216621
v -4.1849998 -1.0803761 -1.1283379
v -4.1849998 -1.0832726 -1.1343523
v -4.1849998 -1.0884917 -1.1385145
v -4.1882542 -1.0893637 -1.1114855
v -4.1908634 -1.0848437 -1.1156477
v -4.1923119 -1.0823353 -1.1216621
v -4.1923119 -1.0823353 -1.1283379
v -4.1908634 -1.0848437 -1.1343523
v -4.1882542 -1.0893637 -1.1385145
v -4.1906361 -1.0917459 -1.1114855
v -4.1951561 -1.0891362 -1.1156477
v -4.1976646 -1.0876881 -1.1216621
v -4.1976646 -1.0876881 -1.1283379
v -4.1951561 -1.0891362 -1.1343523
v -4.1906361 -1.0917459 -1.1385145
v -4.1915081 -1.0950000 -1.1114855
v -4.1967274 -1.0950000 -1.1156477
v -4.1996239 -1.0950000 -1.1216621
v -4.1996239 -1.0950000 -1.1283379
v -4.1967274 -1.0950000 -1.1343523
v -4.1915081 -1.0950000 -1.1385145
v -4.1906361 -1.0982541 -1.1114855
v -4.1951561 -1.1008637 -1.1156477
v -4.1976646 -1.1023119 -1.1216621
v -4.1976646 -1.1023119 -1.1283379
v -4.1951561 -1.1008637 -1.1343523
v -4.1906361 -1.0982541 -1.1385145
v -4.1882542 -1.1006363 -1.1114855
v -4.1908634 -1.1051562 -1.1156477
v -4.1923119 -1.1076647 -1.1216621
v -4.1923119 -1.1076647 -1.1283379
v -4.1908634 -1.1051562 -1.1343523
v -4.1882542 -1.1006363 -1.1385145
v -4.1849998 -1.1015082 -1.1114855
v -4.1849998 -1.1067274 -1.1156477
v -4.1849998 -1.1096239 -1.1216621
v -4.1849998 -1.1096239 -1.1283379
v -4.1849998 -1.1067274 -1.1343523
v -4.1849998 -1.1015082 -1.1385145
v -4.1817455 -1.1006363 -1.1114855
v -4.1791363 -1.1051562 -1.1156477
v -4.1776878 -1.1076647 -1.1216621
v -4.1776878 -1.1076647 -1.1283379
v -4.1791363 -1.1051562 -1.1343523
v -4.1817455 -1.1006363 -1.1385145
v -4.1793636 -1.0982541 -1.1114855
v -4.1748436 -1.1008637 -1.1156477
v -4.1723351 -1.1023119 -1.1216621
v -4.1723351 -1.1023119 -1.1283379
v -4.1748436 -1.1008637 -1.1343523
v -4.1793636 -1.0982541 -1.1385145
vn 0.0000000 0.0000000 1.0000000
vn 0.0000000 0.0000000 -1.0000000
vn 0.4958046 0.0530152 0.8668144
vn 0.7979606 0.0367878 0.6015858
vn 0.9765464 0.0131419 0.2149055
vn 0.9765464 -0.0131419 -0.2149055
vn 0.7979606 -0.0367878 -0.6015858
vn 0.4958046 -0.0530152 -0.8668144
vn 0.4028816 0.2938156 0.8668095
vn 0.6726523 0.4308504 0.6015869
vn 0.8391403 0.4996593 0.2149049
vn 0.8522827 0.4768944 -0.2149092
vn 0.7094508 0.3671261 -0.6015795
vn 0.4558922 0.2019893 -0.8668117
vn 0.2019985 0.4558897 0.8668110
vn 0.3671218 0.7094547 0.6015775
vn 0.4768868 0.8522872 0.2149080
vn 0.4996575 0.8391409 -0.2149070
vn 0.4308419 0.6726659 -0.6015778
vn 0.2938150 0.4028797 -0.8668107
vn -0.0530112 0.4958075 0.8668130
vn -0.0367904 0.7979654 0.6015793
vn -0.0131439 0.9765468 0.2149035
vn 0.0131439 0.9765468 -0.2149035
vn 0.0367904 0.7979654 -0.6015793
vn 0.0530112 0.4958075 -0.8668130
vn -0.2938150 0.4028797 0.8668107
vn -0.4308419 0.6726659 0.6015778
vn -0.4996575 0.8391409 0.2149070
vn -0.4768868 0.8522872 -0.2149080
vn -0.3671218 0.7094547 -0.6015775
vn -0.2019985 0.4558897 -0.8668110
vn -0.4558922 0.2019893 0.8668117
vn -0.7094508 0.3671261 0.6015795
vn -0.8522827 0.4768944 0.2149092
vn -0.8391403 0.4996593 -0.2149049
vn -0.6726523 0.4308504 -0.6015869
vn -0.4028816 0.2938156 -0.8668095
vn -0.4958046 -0.0530152 0.8668144
vn -0.7979606 -0.0367878 0.6015858
vn -0.9765464 -0.0131419 0.2149055
vn -0.9765464 0.0131419 -0.2149055
vn -0.7979606 0.0367878 -0.6015858
vn -0.4958046 0.0530152 -0.8668144
vn -0.4028816 -0.2938156 0.8668095
vn -0.6726523 -0.4308504 0.6015869
vn -0.8391403 -0.4996593 0.2149049
vn -0.8522827 -0.4768944 -0.2149092
vn -0.7094508 -0.3671261 -0.6015795
vn -0.4558922 -0.2019893 -0.8668117
vn -0.2019985 -0.4558897 0.8668110
vn -0.3671218 -0.7094547 0.6015775
vn -0.4768868 -0.8522872 0.2149080
vn -0.4996575 -0.8391409 -0.2149070
vn -0.4308419 -0.6726659 -0.6015778
vn -0.2938150 -0.4028797 -0.8668107
vn 0.0530112 -0.4958075 0.8668130
vn 0.0367904 -0.7979654 0.6015793
vn 0.0131439 -0.9765468 0.2149035
vn -0.0131439 -0.9765468 -0.2149035
vn -0.0367904 -0.7979654 -0.6015793
vn -0.0530112 -0.4958075 -0.8668130
vn 0.2938150 -0.4028797 0.8668107
vn 0.4308419 -0.6726659 0.6015778
vn 0.4996575 -0.8391409 0.2149070
vn 0.4768868 -0.8522872 -0.2149080
vn 0.3671218 -0.7094547 -0.6015775
vn 0.2019985 -0.4558897 -0.8668110
vn 0.4558922 -0.2019893 0.8668117
vn 0.7094508 -0.3671261 0.6015795
vn 0.8522827 -0.4768944 0.2149092
vn 0.8391403 -0.4996593 -0.2149049
vn 0.6726523 -0.4308504 -0.6015869
vn 0.4028816 -0.2938156 -0.8668095
f 3//3 9//9 1//1
f 9//9 15//15 1//1
f 15//15 21//21 1//1
f 21//21 27//27 1//1
f 27//27 33//33 1//1
f 33//33 39//39 1//1
f 39//39 45//45 1//1
f 45//45 51//51 1//1
f 51//51 57//57 1//1
f 57//57 63//63 1//1
f 63//63 69//69 1//1
f 69//69 3//3 1//1
f 8//8 2//2 14//14
f 14//14 2//2 20//20
f 20//20 2//2 26//26
f 26//26 2//2 32//32
f 32//32 2//2 38//38
f 38//38 2//2 44//44
f 44//44 2//2 50//50
f 50//50 2//2 56//56
f 56//56 2//2 62//62
f 62//62 2//2 68//68
f 68//68 2//2 74//74
f 74//74 2//2 8//8
f 3//3 4//4 10//10
f 3//3 10//10 9//9
f 4//4 5//5 11//11
f 4//4 11//11 10//10
f 5//5 6//6 12//12
f 5//5 12//12 11//11
f 6//6 7//7 13//13
f 6//6 13//13 12//12
f 7//7 8//8 14//14
f 7//7 14//14 13//13
f 9//9 10//10 16//16
f 9//9 16//16 15//15
f 10//10 11//11 17//17
f 10//10 17//17 16//16
f 11//11 12//12 18//18
f 11//11 18//18 17//17
f 12//12 13//13 19//19
f 12//12 19//19 18//18
f 13//13 14//14 20//20
f 13//13 20//20 19//19
f 15//15 16//16 22//22
f 15//15 22//22 21//21
f 16//16 17//17 23//23
f 16//16 23//23 22//22
f 17//17 18//18 24//24
f 17//17 24//24 23//23
f 18//18 19//19 25//25
f 18//18 25//25 24//24
f 19//19 20//20 26//26
f 19//19 26//26 25//25
f 21//21 22//22 28//28
f 21//21 28//28 27//27
f 22//22 23//23 29//29
f 22//22 29//29 28//28
f 23//23 24//24 30//30
f 23//23 30//30 29//29
f 24//24 25//25 31//31
f 24//24 31//31 30//30
f 25//25 26//26 32//32
f 25//25 32//32 31//31
f 27//27 28//28 34//34
f 27//27 34//34 33//33
f 28//28 29//29 35//35
f 28//28 35//35 34//34
f 29//29 30//30 36//36
f 29//29 36//36 35//35
f 30//30 31//31 37//37
f 30//30 37//37 36//36
f 31//31 32//32 38//38
f 31//31 38//38 37//37
f 33//33 34//34 40//40
f 33//33 40//40 39//39
f 34//34 35//35 41//41
f 34//34 41//41 40//40
f 35//35 36//36 42//42
f 35//35 42//42 41//41
f 36//36 37//37 43//43
f 36//36 43//43 42//42
f 37//37 38//38 44//44
f 37//37 44//44 43//43
f 39//39 40//40 46//46
f 39//39 46//46 45//45
f 40//40 41//41 47//47
f 40//40 47//47 46//46
f 41//41 42//42 48//48
f 41//41 48//48 47//47
f 42//42 43//43 49//49
f 42//42 49//49 48//48
f 43//43 44//44 50//50
f 43//43 50//50 49//49
f 45//45 46//46 52//52
f 45//45 52//52 51//51
f 46//46 47//47 53//53
f 46//46 53//53 52//52
f 47//47 48//48 54//54
f 47//47 54//54 53//53
f 48//48 49//49 55//55
f 48//48 55//55 54//54
f 49//49 50//50 56//56
f 49//49 56//56 55//55
f 51//51 52//52 58//58
f 51//51 58//58 57//57
f 52//52 53//53 59//59
f 52//52 59//59 58//58
f 53//53 54//54 60//60
f 53//53 60//60 59//59
f 54//54 55//55 61//61
f 54//54 61//61 60//60
f 55//55 56//56 62//62
f 55//55 62//62 61//61
f 57//57 58//58 64//64
f 57//57 64//64 63//63
f 58//58 59//59 65//65
f 58//58 65//65 64//64
f 59//59 60//60 66//66
f 59//59 66//66 65//65
f 60//60 61//61 67//67
f 60//60 67//67 66//66
f 61//61 62//62 68//68
f 61//61 68//68 67//67
f 63//63 64//64 70//70
f 63//63 70//70 69//69
f 64//64 65//65 71//71
f 64//64 71//71 70//70
f 65//65 66//66 72//72
f 65//65 72//72 71//71
f 66//66 67//67 73//73
f 66//66 73//73 72//72
f 67//67 68//68 74//74
f 67//67 74//74 73//73
f 69//69 70//70 4//4
f 69//69 4//4 3//3
f 70//70 71//71 5//5
f 70//70 5//5 4//4
f 71//71 72//72 6//6
f 71//71 6//6 5//5
f 72//72 73//73 7//7
f 72//72 7//7 6//6
f 73//73 74//74 8//8
f 73//73 8//8 7//7
