# Navegacao Renal 3D - centimetres, Y up
mtllib Kidney_Game_v003.mtl

o UreterJunctionVisual
g UreterJunctionVisual
usemtl MAT_UreterJunction
s 1
v -4.1848388 -1.5635839 -1.2250000
v -4.1509847 -1.5625565 -1.2048897
v -4.1449569 -1.5401094 -1.2977896
v -4.1101307 -1.5385126 -1.2794227
v -4.1123782 -1.5016432 -1.3677818
v -4.0767751 -1.4991233 -1.3511040
v -4.0883548 -1.4496636 -1.4322871
v -4.0521997 -1.4459024 -1.4171790
v -4.0738097 -1.3861680 -1.4888265
v -4.0373490 -1.3808950 -1.4751084
v -4.0693021 -1.3135967 -1.5352271
v -4.0327936 -1.3065994 -1.5226660
v -4.0750051 -1.2347384 -1.5697059
v -4.0387086 -1.2258707 -1.5580243
v -4.0906995 -1.1526236 -1.5909378
v -4.0548668 -1.1418113 -1.5798244
v -4.1157823 -1.0704081 -1.5981070
v -4.0806471 -1.0576514 -1.5872286
v -4.1492895 -0.9912512 -1.5909378
v -4.1150588 -0.9766255 -1.5799524
v -4.1899334 -0.9181949 -1.5697059
v -4.1567795 -0.9018471 -1.5582752
v -4.2361521 -0.8540468 -1.5352271
v -4.2042059 -0.8361901 -1.5230303
v -4.2861695 -0.8012720 -1.4888265
v -4.2555155 -0.7821775 -1.4755720
v -4.3380634 -0.7618986 -1.4322871
v -4.3087364 -0.7418851 -1.4177241
v -4.3898396 -0.7374398 -1.3677818
v -4.3618234 -0.7168612 -1.3517097
v -4.4395084 -0.7288354 -1.2977896
v -4.4127363 -0.7080675 -1.2800658
v -4.4851609 -0.7364161 -1.2250000
v -4.4595187 -0.7158420 -1.2055454
v -4.5250428 -0.7598906 -1.1522104
v -4.5003727 -0.7398859 -1.1310124
v -4.5576215 -0.7983568 -1.0822182
v -4.5337283 -0.7792752 -1.0593311
v -4.5816449 -0.8503364 -1.0177129
v -4.5583037 -0.8324961 -0.9932562
v -4.5961899 -0.9138320 -0.9611735
v -4.5731544 -0.8975035 -0.9353267
v -4.6006976 -0.9864033 -0.9147729
v -4.5777098 -0.9717991 -0.8877691
v -4.5949946 -1.0652616 -0.8802941
v -4.5717948 -1.0525278 -0.8524108
v -4.5793001 -1.1473764 -0.8590622
v -4.5556366 -1.1365873 -0.8306107
v -4.5542174 -1.2295919 -0.8518930
v -4.5298563 -1.2207471 -0.8232065
v -4.5207102 -1.3087488 -0.8590622
v -4.4954446 -1.3017730 -0.8304827
v -4.4800663 -1.3818051 -0.8802941
v -4.4537239 -1.3765514 -0.8521599
v -4.4338476 -1.4459532 -0.9147729
v -4.4062974 -1.4422085 -0.8874048
v -4.3838302 -1.4987280 -0.9611735
v -4.3549879 -1.4962210 -0.9348631
v -4.3319362 -1.5381014 -1.0177129
v -4.3017670 -1.5365135 -0.9927110
v -4.2801601 -1.5625602 -1.0822182
v -4.2486800 -1.5615373 -1.0587254
v -4.2304913 -1.5711646 -1.1522104
v -4.1977670 -1.5703310 -1.1303693
v -4.0780868 -1.5471703 -1.1587300
v -4.0362463 -1.5225518 -1.2349968
v -4.0021211 -1.4822423 -1.3083720
v -3.9770226 -1.4277907 -1.3760360
v -3.9619153 -1.3612897 -1.4353884
v -3.9573799 -1.2852949 -1.4841483
v -3.9635905 -1.2027267 -1.5204420
v -3.9803086 -1.1167581 -1.5428747
v -4.0068916 -1.0306928 -1.5505842
v -4.0423181 -0.9478384 -1.5432745
v -4.0852264 -0.8713789 -1.5212262
v -4.1339678 -0.8042525 -1.4852868
v -4.1866692 -0.7490389 -1.4368374
v -4.2413051 -0.7078599 -1.3777399
v -4.2957761 -0.6822980 -1.3102653
v -4.3479888 -0.6733355 -1.2370067
v -4.3959367 -0.6813169 -1.1607793
v -4.4377772 -0.7059354 -1.0845126
v -4.4719024 -0.7462450 -1.0111373
v -4.4970008 -0.8006965 -0.9434733
v -4.5121081 -0.8671975 -0.8841210
v -4.5166435 -0.9431923 -0.8353610
v -4.5104329 -1.0257606 -0.7990673
v -4.4937148 -1.1117291 -0.7766347
v -4.4671318 -1.1977944 -0.7689251
v -4.4317054 -1.2806488 -0.7762349
v -4.3887970 -1.3571083 -0.7982831
v -4.3400556 -1.4242347 -0.8342225
v -4.2873543 -1.4794483 -0.8826719
v -4.2327183 -1.5206273 -0.9417694
v -4.1782474 -1.5461892 -1.0092440
v -4.1260347 -1.5551517 -1.0825026
v -3.9971731 -1.5284156 -1.1070223
v -3.9542798 -1.5031980 -1.1849785
v -3.9193531 -1.4619567 -1.2600265
v -3.8937354 -1.4062766 -1.3292825
v -3.8784112 -1.3382974 -1.3900849
v -3.8739692 -1.2606316 -1.4400971
v -3.8805803 -1.1762638 -1.4773971
v -3.8979904 -1.0884361 -1.5005517
v -3.9255303 -1.0005239 -1.5086708
v -3.9621418 -0.9159055 -1.5014426
v -4.0064179 -0.8378327 -1.4791448
v -4.0566572 -0.7693058 -1.4426342
v -4.1109288 -0.7129583 -1.3933141
v -4.1671472 -0.6709556 -1.3330796
v -4.2231520 -0.6449118 -1.2642456
v -4.2767909 -0.6358277 -1.1894574
v -4.3260027 -0.6440526 -1.1115890
v -4.3688961 -0.6692702 -1.0336329
v -4.4038227 -0.7105115 -0.9585848
v -4.4294404 -0.7661916 -0.8893288
v -4.4447646 -0.8341708 -0.8285264
v -4.4492066 -0.9118366 -0.7785143
v -4.4425955 -0.9962044 -0.7412142
v -4.4251854 -1.0840320 -0.7180597
v -4.3976455 -1.1719443 -0.7099405
v -4.3610340 -1.2565627 -0.7171688
v -4.3167579 -1.3346355 -0.7394666
v -4.2665187 -1.4031624 -0.7759771
v -4.2122470 -1.4595099 -0.8252973
v -4.1560286 -1.5015126 -0.8855317
v -4.1000238 -1.5275564 -0.9543657
v -4.0463849 -1.5366405 -1.0291539
v -3.9275834 -1.5133056 -1.0624901
v -3.8834287 -1.4874101 -1.1419945
v -3.8475006 -1.4451618 -1.2185805
v -3.8211797 -1.3881844 -1.2893049
v -3.8054774 -1.3186674 -1.3514499
v -3.8009972 -1.2392824 -1.4026271
v -3.8079113 -1.1530801 -1.4408700
v -3.8259540 -1.0633732 -1.4647089
v -3.8544320 -0.9736091 -1.4732276
v -3.8922507 -0.8872373 -1.4660987
v -3.9379569 -0.8075771 -1.4435963
v -3.9897941 -0.7376898 -1.4065852
v -4.0457702 -0.6802610 -1.3564875
v -4.1037341 -0.6374979 -1.2952285
v -4.1614583 -0.6110436 -1.2251625
v -4.2167244 -0.6019150 -1.1489819
v -4.2674087 -0.6104626 -1.0696144
v -4.3115633 -0.6363582 -0.9901100
v -4.3474915 -0.6786064 -0.9135240
v -4.3738124 -0.7355839 -0.8427996
v -4.3895147 -0.8051008 -0.7806546
v -4.3939948 -0.8844858 -0.7294774
v -4.3870807 -0.9706881 -0.6912345
v -4.3690380 -1.0603950 -0.6673956
v -4.3405601 -1.1501592 -0.6588769
v -4.3027414 -1.2365309 -0.6660058
v -4.2570352 -1.3161912 -0.6885081
v -4.2051980 -1.3860785 -0.7255193
v -4.1492219 -1.4435072 -0.7756170
v -4.0912580 -1.4862704 -0.8368760
v -4.0335338 -1.5127246 -0.9069420
v -3.9782676 -1.5218533 -0.9831226
v -3.8693995 -1.5023089 -1.0250892
v -3.8236239 -1.4755961 -1.1058916
v -3.7862760 -1.4321795 -1.1837256
v -3.7587911 -1.3737275 -1.2556002
v -3.7422253 -1.3024865 -1.3187532
v -3.7372153 -1.2211942 -1.3707577
v -3.7439537 -1.1329746 -1.4096152
v -3.7621815 -1.0412179 -1.4338324
v -3.7911981 -0.9494504 -1.4424787
v -3.8298886 -0.8611985 -1.4352218
v -3.8767660 -0.7798538 -1.4123405
v -3.9300289 -0.7085422 -1.3747142
v -3.9876304 -0.6500043 -1.3237889
v -4.0473570 -0.6064897 -1.2615216
v -4.1069133 -0.5796705 -1.1903051
v -4.1640106 -0.5705774 -1.1128763
v -4.2164548 -0.5795598 -1.0322108
v -4.2622304 -0.6062726 -0.9514084
v -4.2995783 -0.6496893 -0.8735744
v -4.3270633 -0.7081412 -0.8016998
v -4.3436290 -0.7793822 -0.7385468
v -4.3486390 -0.8606746 -0.6865423
v -4.3419006 -0.9488942 -0.6476848
v -4.3236729 -1.0406508 -0.6234676
v -4.2946562 -1.1324184 -0.6148213
v -4.2559657 -1.2206702 -0.6220782
v -4.2090883 -1.3020150 -0.6449595
v -4.1558254 -1.3733265 -0.6825858
v -4.0982239 -1.4318644 -0.7335111
v -4.0384974 -1.4753791 -0.7957784
v -3.9789411 -1.5021983 -0.8669949
v -3.9218437 -1.5112914 -0.9444237
v -3.8201686 -1.4949787 -0.9931604
v -3.7723735 -1.4672970 -1.0749701
v -3.7331055 -1.4225223 -1.1536893
v -3.7038736 -1.3623751 -1.2262930
v -3.6858013 -1.2891670 -1.2899909
v -3.6795830 -1.2057112 -1.3423353
v -3.6854577 -1.1152149 -1.3813145
v -3.7031996 -1.0211558 -1.4054306
v -3.7321269 -0.9271486 -1.4137569
v -3.7711280 -0.8368059 -1.4059733
v -3.8187041 -0.7535995 -1.3823790
v -3.8730268 -0.6807271 -1.3438807
v -3.9320086 -0.6209890 -1.2919579
v -3.9933828 -0.5766809 -1.2286059
v -4.0547908 -0.5495057 -1.1562593
v -4.1138728 -0.5405075 -1.0776984
v -4.1683583 -0.5500323 -0.9959421
v -4.2161534 -0.5777139 -0.9141324
v -4.2554214 -0.6224886 -0.8354132
v -4.2846533 -0.6826358 -0.7628096
v -4.3027256 -0.7558440 -0.6991116
v -4.3089439 -0.8392998 -0.6467672
v -4.3030693 -0.9297961 -0.6077880
v -4.2853273 -1.0238551 -0.5836719
v -4.2564000 -1.1178623 -0.5753456
v -4.2173989 -1.2082050 -0.5831292
v -4.1698228 -1.2914114 -0.6067235
v -4.1155001 -1.3642839 -0.6452218
v -4.0565184 -1.4240220 -0.6971446
v -3.9951442 -1.4683300 -0.7604967
v -3.9337361 -1.4955053 -0.8328432
v -3.8746541 -1.5045034 -0.9114042
v -3.7758536 -1.4901888 -0.9639647
v -3.7258141 -1.4614668 -1.0466003
v -3.6843090 -1.4152307 -1.1259546
v -3.6529333 -1.3532572 -1.1989779
v -3.6328927 -1.2779281 -1.2628641
v -3.6249574 -1.1921380 -1.3151579
v -3.6294323 -1.0991839 -1.3538499
v -3.6461455 -1.0026380 -1.3774530
v -3.6744547 -0.9062105 -1.3850603
v -3.7132720 -0.8136070 -1.3763794
v -3.7611057 -0.7283862 -1.3517438
v -3.8161175 -0.6538231 -1.3121004
v -3.8761933 -0.5927831 -1.2589725
v -3.9390246 -0.5476120 -1.1944019
v -4.0021966 -0.5200457 -1.1208700
v -4.0632818 -0.5111435 -1.0412026
v -4.1199327 -0.5212475 -0.9584612
v -4.1699722 -0.5499695 -0.8758255
v -4.2114773 -0.5962056 -0.7964713
v -4.2428530 -0.6581790 -0.7234479
v -4.2628936 -0.7335082 -0.6595618
v -4.2708289 -0.8192983 -0.6072679
v -4.2663540 -0.9122523 -0.5685759
v -4.2496408 -1.0087983 -0.5449728
v -4.2213316 -1.1052258 -0.5373655
v -4.1825143 -1.1978293 -0.5460465
v -4.1346806 -1.2830501 -0.5706820
v -4.0796688 -1.3576132 -0.6103255
v -4.0195930 -1.4186531 -0.6634533
v -3.9567617 -1.4638242 -0.7280239
v -3.8935897 -1.4913906 -0.8015558
v -3.8325045 -1.5002928 -0.8812233
v -3.7309396 -1.4861034 -0.9336220
v -3.6787830 -1.4564097 -1.0171578
v -3.6351595 -1.4087810 -1.0972125
v -3.6017455 -1.3450478 -1.1707097
v -3.5798252 -1.2676593 -1.2348249
v -3.5702409 -1.1795894 -1.2870942
v -3.5733609 -1.0842226 -1.3255090
v -3.5890653 -0.9852239 -1.3485930
v -3.6167507 -0.8863976 -1.3554590
v -3.6553530 -0.7915417 -1.3458433
v -3.7033889 -0.7043014 -1.3201153
v -3.7590122 -0.6280292 -1.2792638
v -3.8200856 -0.5656563 -1.2248586
v -3.8842618 -0.5195797 -1.1589905
v -3.9490748 -0.4915700 -1.0841909
v -4.0120337 -0.4827036 -1.0033341
v -4.0707191 -0.4933213 -0.9195276
v -4.1228757 -0.5230150 -0.8359918
v -4.1664992 -0.5706436 -0.7559371
v -4.1999131 -0.6343768 -0.6824399
v -4.2218334 -0.7117654 -0.6183247
v -4.2314178 -0.7998353 -0.5660554
v -4.2282977 -0.8952020 -0.5276406
v -4.2125933 -0.9942008 -0.5045566
v -4.1849080 -1.0930270 -0.4976906
v -4.1463056 -1.1878830 -0.5073063
v -4.0982698 -1.2751233 -0.5330343
v -4.0426464 -1.3513955 -0.5738858
v -3.9815731 -1.4137683 -0.6282910
v -3.9173968 -1.4598450 -0.6941591
v -3.8525838 -1.4878547 -0.7689587
v -3.7896249 -1.4967211 -0.8498155
v -3.6817600 -1.4813135 -0.8995505
v -3.6278317 -1.4507825 -0.9842332
v -3.5824897 -1.4019162 -1.0652748
v -3.5474764 -1.3365924 -1.1395610
v -3.5241374 -1.2573214 -1.2042369
v -3.5133696 -1.1671497 -1.2568171
v -3.5155868 -1.0695424 -1.2952810
v -3.5307038 -0.9682506 -1.3181503
v -3.5581397 -0.8671669 -1.3245464
v -3.5968401 -0.7701757 -1.3142233
v -3.6453177 -0.6810046 -1.2875778
v -3.7017096 -0.6030801 -1.2456338
v -3.7638488 -0.5393970 -1.1900033
v -3.8293471 -0.4924026 -1.1228241
v -3.8956876 -0.4639028 -1.0466778
v -3.9603209 -0.4549928 -0.9644907
v -4.0207631 -0.4660151 -0.8794212
v -4.0746914 -0.4965460 -0.7947385
v -4.1200334 -0.5454124 -0.7136968
v -4.1550467 -0.6107362 -0.6394107
v -4.1783856 -0.6900071 -0.5747348
v -4.1891534 -0.7801789 -0.5221546
v -4.1869362 -0.8777861 -0.4836907
v -4.1718192 -0.9790779 -0.4608213
v -4.1443833 -1.0801617 -0.4544253
v -4.1056830 -1.1771528 -0.4647484
v -4.0572053 -1.2663240 -0.4913939
v -4.0008134 -1.3442484 -0.5333378
v -3.9386743 -1.4079315 -0.5889683
v -3.8731759 -1.4549260 -0.6561476
v -3.8068354 -1.4834258 -0.7322939
v -3.7422021 -1.4923358 -0.8144810
v -3.6264378 -1.4750084 -0.8605085
v -3.5711070 -1.4437665 -0.9466127
v -3.5244767 -1.3938091 -1.0289618
v -3.4883390 -1.3270559 -1.1043910
v -3.4640825 -1.2460722 -1.1700016
v -3.4526393 -1.1539702 -1.2232724
v -3.4544494 -1.0542893 -1.2621560
v -3.4694430 -0.9508601 -1.2851582
v -3.4970441 -0.8476575 -1.2913951
v -3.5361919 -0.7486475 -1.2806270
v -3.5853819 -0.6576348 -1.2532677
v -3.6427239 -0.5781172 -1.2103686
v -3.7060142 -0.5131504 -1.1535782
v -3.7728207 -0.4652310 -1.0850791
v -3.8405759 -0.4362006 -1.0075036
v -3.9066760 -0.4271748 -0.9238328
v -3.9685810 -0.4385004 -0.8372823
v -4.0239118 -0.4697423 -0.7511780
v -4.0705420 -0.5196997 -0.6688289
v -4.1066798 -0.5864529 -0.5933997
v -4.1309363 -0.6674366 -0.5277891
v -4.1423794 -0.7595386 -0.4745184
v -4.1405694 -0.8592195 -0.4356347
v -4.1255757 -0.9626486 -0.4126325
v -4.0979747 -1.0658512 -0.4063956
v -4.0588269 -1.1648613 -0.4171637
v -4.0096368 -1.2558740 -0.4445230
v -3.9522948 -1.3353916 -0.4874222
v -3.8890045 -1.4003584 -0.5442125
v -3.8221981 -1.4482778 -0.6127116
v -3.7544429 -1.4773082 -0.6902871
v -3.6883427 -1.4863340 -0.7739579
v -3.5635440 -1.4664824 -0.8156231
v -3.5071322 -1.4346321 -0.9033917
v -3.4595883 -1.3837028 -0.9873311
v -3.4227395 -1.3156517 -1.0642157
v -3.3980018 -1.2330938 -1.1310909
v -3.3863258 -1.1392019 -1.1853866
v -3.3881604 -1.0375842 -1.2250164
v -3.4034349 -0.9321458 -1.2484573
v -3.4315623 -0.8269386 -1.2548084
v -3.4714618 -0.7260057 -1.2438256
v -3.5216001 -0.6332259 -1.2159312
v -3.5800503 -0.5521647 -1.1721969
v -3.6445663 -0.4859371 -1.1143036
v -3.7126686 -0.4370883 -1.0444759
v -3.7817403 -0.4074955 -0.9653974
v -3.8491269 -0.3982960 -0.8801069
v -3.9122388 -0.4098432 -0.7918823
v -3.9686506 -0.4416935 -0.7041138
v -4.0161944 -0.4926228 -0.6201743
v -4.0530433 -0.5606740 -0.5432897
v -4.0777810 -0.6432318 -0.4764145
v -4.0894569 -0.7371237 -0.4221188
v -4.0876224 -0.8387414 -0.3824890
v -4.0723479 -0.9441798 -0.3590482
v -4.0442205 -1.0493870 -0.3526971
v -4.0043209 -1.1503199 -0.3636798
v -3.9541827 -1.2430997 -0.3915742
v -3.8957325 -1.3241610 -0.4353085
v -3.8312165 -1.3903885 -0.4932019
v -3.7631141 -1.4392373 -0.5630295
v -3.6940425 -1.4688301 -0.6421080
v -3.6266559 -1.4780296 -0.7273985
v -3.4920283 -1.4551170 -0.7643243
v -3.4347384 -1.4227219 -0.8539102
v -3.3865175 -1.3708949 -0.9396185
v -3.3492189 -1.3016277 -1.0181556
v -3.3242757 -1.2175822 -1.0865033
v -3.3126467 -1.1219883 -1.1420350
v -3.3147786 -1.0185196 -1.1826167
v -3.3305896 -0.9111522 -1.2066889
v -3.3594720 -0.8040123 -1.2133265
v -3.4003159 -0.7012172 -1.2022743
v -3.4515518 -0.6067173 -1.1739572
v -3.5112105 -0.5241441 -1.1294633
v -3.5769996 -0.4566709 -1.0705025
v -3.6463906 -0.4068906 -0.9993407
v -3.7167171 -0.3767163 -0.9187125
v -3.7852764 -0.3673075 -0.8317165
v -3.8494337 -0.3790259 -0.7416958
v -3.9067236 -0.4114210 -0.6521099
v -3.9549444 -0.4632480 -0.5664016
v -3.9922431 -0.5325152 -0.4878645
v -4.0171862 -0.6165606 -0.4195168
v -4.0288153 -0.7121546 -0.3639851
v -4.0266833 -0.8156233 -0.3234033
v -4.0108724 -0.9229907 -0.2993312
v -3.9819899 -1.0301306 -0.2926936
v -3.9411460 -1.1329256 -0.3037458
v -3.8899102 -1.2274256 -0.3320629
v -3.8302514 -1.3099988 -0.3765568
v -3.7644624 -1.3774720 -0.4355176
v -3.6950713 -1.4272523 -0.5066794
v -3.6247448 -1.4574266 -0.5873076
v -3.5561856 -1.4668354 -0.6743036
v -3.4137128 -1.4412971 -0.7081276
v -3.3555644 -1.4083639 -0.7995452
v -3.3066895 -1.3556472 -0.8870390
v -3.2689661 -1.2851728 -0.9672468
v -3.2438441 -1.1996490 -1.0370863
v -3.2322889 -1.1023624 -1.0938735
v -3.2347444 -0.9970518 -1.1354262
v -3.2511164 -0.8877641 -1.1601475
v -3.2807757 -0.7786992 -1.1670874
v -3.3225824 -0.6740484 -1.1559792
v -3.3749301 -0.5778334 -1.1272497
v -3.4358069 -0.4937517 -1.0820031
v -3.5028735 -0.4250344 -1.0219781
v -3.5735524 -0.3743224 -0.9494814
v -3.6451276 -0.3435644 -0.8672992
v -3.7148485 -0.3339426 -0.7785895
v -3.7800357 -0.3458266 -0.6867614
v -3.8381840 -0.3787598 -0.5953439
v -3.8870590 -0.4314765 -0.5078501
v -3.9247823 -0.5019509 -0.4276423
v -3.9499044 -0.5874747 -0.3578028
v -3.9614596 -0.6847612 -0.3010156
v -3.9590041 -0.7900719 -0.2594629
v -3.9426321 -0.8993596 -0.2347416
v -3.9129728 -1.0084245 -0.2278017
v -3.8711660 -1.1130753 -0.2389099
v -3.8188184 -1.2092903 -0.2676394
v -3.7579415 -1.2933720 -0.3128860
v -3.6908750 -1.3620893 -0.3729110
v -3.6201960 -1.4128013 -0.4454076
v -3.5486208 -1.4435592 -0.5275899
v -3.4789000 -1.4531811 -0.6162996
v -3.3367353 -1.4276907 -0.6530966
v -3.2776652 -1.3942000 -0.7462978
v -3.2280623 -1.3405707 -0.8355214
v -3.1898329 -1.2688639 -0.9173384
v -3.1644462 -1.1818352 -0.9886048
v -3.1528776 -1.0828290 -1.0465818
v -3.1555719 -0.9756501 -1.0890413
v -3.1724254 -0.8644174 -1.1143517
v -3.2027905 -0.7534053 -1.1215403
v -3.2455003 -0.6468802 -1.1103309
v -3.2989134 -0.5489356 -1.0811541
v -3.3609772 -0.4633355 -1.0351314
v -3.4293067 -0.3933696 -0.9740312
v -3.5012760 -0.3417264 -0.9002017
v -3.5741193 -0.3103908 -0.8164801
v -3.6450373 -0.3005668 -0.7260837
v -3.7113047 -0.3126320 -0.6324864
v -3.7703748 -0.3461227 -0.5392852
v -3.8199777 -0.3997519 -0.4500616
v -3.8582071 -0.4714588 -0.3682446
v -3.8835938 -0.5584875 -0.2969782
v -3.8951624 -0.6574937 -0.2390012
v -3.8924681 -0.7646726 -0.1965417
v -3.8756146 -0.8759053 -0.1712313
v -3.8452495 -0.9869174 -0.1640427
v -3.8025397 -1.0934425 -0.1752522
v -3.7491266 -1.1913871 -0.2044289
v -3.6870628 -1.2769871 -0.2504516
v -3.6187333 -1.3469531 -0.3115518
v -3.5467640 -1.3985962 -0.3853813
v -3.4739207 -1.4299319 -0.4691029
v -3.4030027 -1.4397559 -0.5594993
v -3.2698477 -1.4172061 -0.6057230
v -3.2098117 -1.3831439 -0.7006748
v -3.1594296 -1.3285859 -0.7915894
v -3.1206375 -1.2556288 -0.8749730
v -3.0949261 -1.1670762 -0.9476213
v -3.0832837 -1.0663313 -1.0067423
v -3.0861575 -0.9572654 -1.0500642
v -3.1034371 -0.8440701 -1.0759221
v -3.1344585 -0.7310953 -1.0833222
v -3.1780296 -0.6226826 -1.0719802
v -3.2324758 -0.5229981 -1.0423319
v -3.2957050 -0.4358729 -0.9955168
v -3.3652872 -0.3646549 -0.9333338
v -3.4385485 -0.3120811 -0.8581728
v -3.5126733 -0.2801719 -0.7729219
v -3.5848133 -0.2701535 -0.6808575
v -3.6521960 -0.2824109 -0.5855175
v -3.7122319 -0.3164731 -0.4905656
v -3.7626141 -0.3710311 -0.3996510
v -3.8014061 -0.4439882 -0.3162674
v -3.8271175 -0.5325408 -0.2436191
v -3.8387599 -0.6332857 -0.1844981
v -3.8358861 -0.7423516 -0.1411762
v -3.8186065 -0.8555469 -0.1153184
v -3.7875851 -0.9685217 -0.1079182
v -3.7440141 -1.0769345 -0.1192602
v -3.6895678 -1.1766189 -0.1489085
v -3.6263386 -1.2637441 -0.1957236
v -3.5567564 -1.3349621 -0.2579066
v -3.4834952 -1.3875359 -0.3330676
v -3.4093703 -1.4194451 -0.4183185
v -3.3372304 -1.4294635 -0.5103829
v -3.2218318 -1.4127603 -0.5725238
v -3.1607995 -1.3781170 -0.6692032
v -3.1096025 -1.3226189 -0.7617821
v -3.0702082 -1.2483989 -0.8467027
v -3.0441306 -1.1583092 -0.9207016
v -3.0323718 -1.0558118 -0.9809350
v -3.0353837 -0.9448458 -1.0250881
v -3.0530506 -0.8296755 -1.0514643
v -3.0846935 -0.7147267 -1.0590498
v -3.1290964 -0.6044170 -1.0475532
v -3.1845530 -0.5029854 -1.0174162
v -3.2489320 -0.4143300 -0.9697971
v -3.3197594 -0.3418576 -0.9065258
v -3.3943134 -0.2883534 -0.8300338
v -3.4697289 -0.2558735 -0.7432606
v -3.5431077 -0.2456661 -0.6495408
v -3.6116299 -0.2581234 -0.5524761
v -3.6726623 -0.2927668 -0.4557967
v -3.7238593 -0.3482649 -0.3632178
v -3.7632536 -0.4224849 -0.2782972
v -3.7893312 -0.5125746 -0.2042983
v -3.8010900 -0.6150719 -0.1440649
v -3.7980780 -0.7260379 -0.0999118
v -3.7804112 -0.8412083 -0.0735356
v -3.7487683 -0.9561570 -0.0659501
v -3.7043653 -1.0664668 -0.0774467
v -3.6489088 -1.1678983 -0.1075837
v -3.5845298 -1.2565538 -0.1552028
v -3.5137023 -1.3290262 -0.2184741
v -3.4391483 -1.3825304 -0.2949661
v -3.3637329 -1.4150103 -0.3817393
v -3.2903541 -1.4252177 -0.4754591
v -3.2014900 -1.4172761 -0.5600301
v -3.1394396 -1.3820446 -0.6584210
v -3.0874025 -1.3255983 -0.7526454
v -3.0473783 -1.2501065 -0.8390822
v -3.0209051 -1.1584702 -0.9144097
v -3.0090004 -1.0542109 -0.9757332
v -3.0121215 -0.9413354 -1.0206960
v -3.0301486 -0.8241814 -1.0475702
v -3.0623889 -0.7072509 -1.0553231
v -3.1076034 -0.5950376 -1.0436566
v -3.1640545 -0.4918538 -1.0130193
v -3.2295729 -0.4016648 -0.9645884
v -3.3016407 -0.3279364 -0.9002250
v -3.3774884 -0.2735021 -0.8224027
v -3.4542012 -0.2404536 -0.7341122
v -3.5288311 -0.2300611 -0.6387463
v -3.5985100 -0.2427240 -0.5399699
v -3.6605604 -0.2779555 -0.4415790
v -3.7125975 -0.3344017 -0.3473546
v -3.7526217 -0.4098936 -0.2609178
v -3.7790949 -0.5015299 -0.1855903
v -3.7909996 -0.6057891 -0.1242668
v -3.7878785 -0.7186646 -0.0793040
v -3.7698514 -0.8358187 -0.0524298
v -3.7376111 -0.9527491 -0.0446769
v -3.6923966 -1.0649624 -0.0563434
v -3.6359455 -1.1681462 -0.0869807
v -3.5704271 -1.2583353 -0.1354116
v -3.4983593 -1.3320636 -0.1997750
v -3.4225116 -1.3864980 -0.2775973
v -3.3457988 -1.4195464 -0.3658878
v -3.2711689 -1.4299389 -0.4612537
v -4.3349998 -1.1500000 -1.2250000
v -3.4000000 -0.8300000 -0.5500000
vn -0.7503116 -0.4051632 -0.5223746
vn 0.1981723 -0.9771937 -0.0762899
vn -0.7386484 -0.3993204 -0.5430854
vn 0.2886459 -0.9269894 -0.2395290
vn -0.7290229 -0.3890970 -0.5631422
vn 0.3628500 -0.8430444 -0.3970088
vn -0.7218226 -0.3749047 -0.5817376
vn 0.4179308 -0.7285881 -0.5426723
vn -0.7173324 -0.3573212 -0.5981269
vn 0.4517706 -0.5880242 -0.6709179
vn -0.7157226 -0.3370629 -0.6116615
vn 0.4630694 -0.4267607 -0.7768153
vn -0.7170426 -0.3149511 -0.6218165
vn 0.4513946 -0.2510013 -0.8562951
vn -0.7212210 -0.2918741 -0.6282116
vn 0.4171978 -0.0675058 -0.9063051
vn -0.7280714 -0.2687471 -0.6306243
vn 0.3617965 0.1166703 -0.9249278
vn -0.7373035 -0.2464726 -0.6289950
vn 0.2873234 0.2944475 -0.9114526
vn -0.7485384 -0.2259039 -0.6234241
vn 0.1966440 0.4589948 -0.8664034
vn -0.7613268 -0.2078125 -0.6141624
vn 0.0932453 0.6039922 -0.7915167
vn -0.7751691 -0.1928613 -0.6015957
vn -0.0188980 0.7238729 -0.6896745
vn -0.7895354 -0.1815841 -0.5862261
vn -0.1354766 0.8140365 -0.5647926
vn -0.8038862 -0.1743716 -0.5686488
vn -0.2520123 0.8710247 -0.4216701
vn -0.8176908 -0.1714624 -0.5495293
vn -0.3640295 0.8926535 -0.2658048
vn -0.8304443 -0.1729398 -0.5295791
vn -0.4672274 0.8780957 -0.1031819
vn -0.8416839 -0.1787333 -0.5095318
vn -0.5576439 0.8279123 0.0599547
vn -0.8510016 -0.1886230 -0.4901200
vn -0.6318077 0.7440306 0.2173418
vn -0.8580570 -0.2022480 -0.4720529
vn -0.6868713 0.6296704 0.3629367
vn -0.8625871 -0.2191168 -0.4559949
vn -0.7207194 0.4892207 0.4911482
vn -0.8644156 -0.2386220 -0.4425440
vn -0.7320508 0.3280723 0.5970512
vn -0.8634598 -0.2600568 -0.4322126
vn -0.7204281 0.1524111 0.6765754
vn -0.8597356 -0.2826360 -0.4254076
vn -0.6862946 -0.0310179 0.7266619
vn -0.8533603 -0.3055203 -0.4224140
vn -0.6309586 -0.2151693 0.7453814
vn -0.8445519 -0.3278440 -0.4233798
vn -0.5565426 -0.3929673 0.7320089
vn -0.8336247 -0.3487464 -0.4283057
vn -0.4659034 -0.5575780 0.6870523
vn -0.8209812 -0.3674052 -0.4370392
vn -0.3625220 -0.7026715 0.6122341
vn -0.8070991 -0.3830711 -0.4492745
vn -0.2503704 -0.8226664 0.5104260
vn -0.7925140 -0.3951014 -0.4645604
vn -0.1337591 -0.9129450 0.3855386
vn -0.7777991 -0.4029909 -0.4823142
vn -0.0171715 -0.9700315 0.2423718
vn -0.7635403 -0.4063979 -0.5018436
vn 0.0949092 -0.9917268 0.0864299
vn 0.2503521 -0.9665183 -0.0562695
vn 0.3407547 -0.9139278 -0.2205043
vn 0.4145135 -0.8275298 -0.3786462
vn 0.4687919 -0.7106421 -0.5246160
vn 0.5015015 -0.5677555 -0.6528016
vn 0.5113828 -0.4043616 -0.7582739
vn 0.4980543 -0.2267411 -0.8369769
vn 0.4620270 -0.0417227 -0.8858839
vn 0.4046853 0.1435800 -0.9031139
vn 0.3282334 0.3220420 -0.8880044
vn 0.2356111 0.4868018 -0.8411370
vn 0.1303800 0.6315253 -0.7643146
vn 0.0165867 0.7506497 -0.6604921
vn -0.1013932 0.8395974 -0.5336625
vn -0.2190239 0.8949519 -0.3887026
vn -0.3317836 0.9145889 -0.2311856
vn -0.4353390 0.8977576 -0.0671663
vn -0.5257112 0.8451087 0.0970519
vn -0.5994291 0.7586689 0.2551593
vn -0.6536623 0.6417625 0.4010817
vn -0.6863291 0.4988832 0.5292144
vn -0.6961768 0.3355214 0.6346363
vn -0.6828288 0.1579529 0.7132992
vn -0.6467992 -0.0270015 0.7621822
vn -0.5894726 -0.2122378 0.7794083
vn -0.5130510 -0.3906413 0.7643154
vn -0.4204696 -0.5553594 0.7174825
vn -0.3152838 -0.7000643 0.6407075
vn -0.2015333 -0.8191960 0.5369379
vn -0.0835870 -0.9081757 0.4101586
vn 0.0340241 -0.9635822 0.2652389
vn 0.1467816 -0.9832833 0.1077459
vn 0.2546698 -0.9652308 -0.0589307
vn 0.3450712 -0.9117564 -0.2227692
vn 0.4185882 -0.8246219 -0.3805032
vn 0.4723946 -0.7071722 -0.5260710
vn 0.5044204 -0.5639184 -0.6538777
vn 0.5134318 -0.4003640 -0.7590102
vn 0.4990791 -0.2227941 -0.8374263
vn 0.4619104 -0.0380338 -0.8861107
vn 0.4033513 0.1468142 -0.9031906
vn 0.3256505 0.3246428 -0.8880083
vn 0.2317937 0.4886145 -0.8411466
vn 0.1253886 0.6324242 -0.7644066
vn 0.0105266 0.7505426 -0.6607383
vn -0.1083751 0.8384288 -0.5341272
vn -0.2267435 0.8927054 -0.3894411
vn -0.3400262 0.9112879 -0.2322422
vn -0.4438672 0.8934650 -0.0685733
vn -0.5342740 0.8399250 0.0952748
vn -0.6077720 0.7527295 0.2530048
vn -0.6615380 0.6352329 0.3985558
vn -0.6935080 0.4919530 0.5263353
vn -0.7024568 0.3283976 0.6314345
vn -0.6880441 0.1508517 0.7098162
vn -0.6508273 -0.0338630 0.7584703
vn -0.5922392 -0.2186508 0.7755286
vn -0.5145330 -0.3964140 0.7603366
vn -0.4206951 -0.5603246 0.7134788
vn -0.3143304 -0.7040872 0.6367555
vn -0.1995242 -0.8221795 0.5331144
vn -0.0806852 -0.9100647 0.4065367
vn 0.0376232 -0.9643654 0.2618852
vn 0.1508579 -0.9829936 0.1047166
vn 0.2415150 -0.9679537 -0.0688199
vn 0.3327999 -0.9141640 -0.2314054
vn 0.4070948 -0.8268790 -0.3880011
vn 0.4615505 -0.7094486 -0.5325916
vn 0.4940780 -0.5663793 -0.6596221
vn 0.5034284 -0.4031628 -0.7642117
vn 0.4892405 -0.2260654 -0.8423409
vn 0.4520555 -0.0418881 -0.8910057
vn 0.3932962 0.1422936 -0.9083340
vn 0.3152140 0.3194016 -0.8936570
vn 0.2208025 0.4826269 -0.8475361
vn 0.1136843 0.6256922 -0.7717417
vn -0.0020279 0.7430931 -0.6691849
vn -0.1218885 0.8303115 -0.5438069
vn -0.2412900 0.8839896 -0.4004266
vn -0.3556401 0.9020602 -0.2445557
vn -0.4605384 0.8838268 -0.0821865
vn -0.5519470 0.8299904 0.0804387
vn -0.6263462 0.7426230 0.2370685
vn -0.6808709 0.6250870 0.3816820
vn -0.7134216 0.4819051 0.5087211
vn -0.7227459 0.3185861 0.6133036
vn -0.7084866 0.1414117 0.6914112
vn -0.6711957 -0.0428052 0.7400433
vn -0.6123121 -0.2269833 0.7573325
vn -0.5341059 -0.4040449 0.7426160
vn -0.4395900 -0.5671883 0.6964611
vn -0.3324026 -0.7101481 0.6206433
vn -0.2166672 -0.8274364 0.5180776
vn -0.0968327 -0.9145519 0.3927063
vn 0.0224972 -0.9681527 0.2493475
vn 0.1367411 -0.9861835 0.0935097
vn 0.2197947 -0.9718868 -0.0844174
vn 0.3132786 -0.9175954 -0.2446942
vn 0.3899516 -0.8298943 -0.3990152
vn 0.4468698 -0.7121318 -0.5414570
vn 0.4818482 -0.5688088 -0.6665425
vn 0.4935443 -0.4054098 -0.7694523
vn 0.4815094 -0.2281948 -0.8462126
vn 0.4462054 -0.0439609 -0.8938502
vn 0.3889873 0.1402170 -0.9105098
vn 0.3120510 0.3172582 -0.8955286
vn 0.2183498 0.4803480 -0.8494641
vn 0.1114812 0.6232010 -0.7740752
vn -0.0044508 0.7403053 -0.6722561
vn -0.1249925 0.8271363 -0.5479255
vn -0.2455118 0.8803343 -0.4058762
vn -0.3613756 0.8978367 -0.2515888
vn -0.4681284 0.8789604 -0.0910192
vn -0.5616641 0.8244298 0.0696342
vn -0.6383841 0.7363507 0.2241726
vn -0.6953369 0.6181278 0.3666396
vn -0.7303319 0.4743317 0.4915535
vn -0.7420238 0.3105189 0.5941201
vn -0.7299648 0.1330130 0.6704170
vn -0.6946209 -0.0513436 0.7175414
vn -0.6373535 -0.2354569 0.7337170
vn -0.5603662 -0.4122559 0.7183556
vn -0.4666198 -0.5749635 0.6720736
vn -0.3597183 -0.7173536 0.5966629
vn -0.2437705 -0.8339850 0.4950202
vn -0.1232321 -0.9204052 0.3710364
vn -0.0027351 -0.9733165 0.2294507
vn 0.1130905 -0.9906988 0.0756731
vn 0.1934793 -0.9756612 -0.1032036
vn 0.2903902 -0.9207865 -0.2604339
vn 0.3709800 -0.8324266 -0.4116306
vn 0.4321020 -0.7139231 -0.5510007
vn 0.4713718 -0.5697829 -0.6731687
vn 0.4872630 -0.4055104 -0.7733926
vn 0.4791653 -0.2273977 -0.8477564
vn 0.4474055 -0.0422821 -0.8933312
vn 0.3932302 0.1427170 -0.9082961
vn 0.3187531 0.3204744 -0.8920161
vn 0.2268688 0.4841342 -0.8450708
vn 0.1211384 0.6273761 -0.7692364
vn 0.0056491 0.7446607 -0.6674193
vn -0.1151442 0.8314450 -0.5435449
vn -0.2365911 0.8843606 -0.4024064
vn -0.3540256 0.9013471 -0.2494779
vn -0.4629442 0.8817347 -0.0907009
vn -0.5591792 0.8262738 0.0677511
vn -0.6390570 0.7371096 0.2197171
vn -0.6995379 0.6177002 0.3592955
vn -0.7383301 0.4726823 0.4810822
vn -0.7539744 0.3076878 0.5803885
vn -0.7458954 0.1291183 0.6534283
vn -0.7144184 -0.0561138 0.6974651
vn -0.6607520 -0.2408631 0.7109091
vn -0.5869377 -0.4180359 0.6933615
vn -0.4957724 -0.5808650 0.6456048
vn -0.3907062 -0.7231620 0.5695483
vn -0.2757202 -0.8395402 0.4681352
vn -0.1551870 -0.9256010 0.3452244
vn -0.0337143 -0.9780863 0.2054520
vn 0.0840262 -0.9949952 0.0540753
vn 0.1749540 -0.9776791 -0.1163385
vn 0.2749062 -0.9223769 -0.2713806
vn 0.3590706 -0.8333695 -0.4201948
vn 0.4240991 -0.7140046 -0.5570794
vn 0.4674060 -0.5688218 -0.6767373
vn 0.4872793 -0.4033799 -0.7744956
vn 0.4829476 -0.2240395 -0.8465033
vn 0.4546048 -0.0377122 -0.8898945
vn 0.4033929 0.1484118 -0.9029109
vn 0.3313470 0.3271450 -0.8849776
vn 0.2413072 0.4915828 -0.8367300
vn 0.1368003 0.6353716 -0.7599925
vn 0.0218983 0.7529541 -0.6577086
vn -0.0989430 0.8397843 -0.5338283
vn -0.2210582 0.8925038 -0.3931542
vn -0.3397519 0.9090727 -0.2411545
vn -0.4504802 0.8888497 -0.0837487
vn -0.5490230 0.8326196 0.0729263
vn -0.6316442 0.7425655 0.2227601
vn -0.6952310 0.6221856 0.3599152
vn -0.7374086 0.4761578 0.4790641
vn -0.7566238 0.3101555 0.5756074
vn -0.7521962 0.1306206 0.6458631
vn -0.7243333 -0.0554979 0.6872127
vn -0.6741122 -0.2410254 0.6981973
vn -0.6034304 -0.4188504 0.6785544
vn -0.5149302 -0.5822019 0.6291962
vn -0.4119054 -0.7248998 0.5521361
vn -0.2981935 -0.8415696 0.4503790
vn -0.1780556 -0.9278198 0.3277905
vn -0.0560400 -0.9803846 0.1889594
vn 0.0631741 -0.9972381 0.0390532
vn 0.1735181 -0.9776979 -0.1183146
vn 0.2745770 -0.9219914 -0.2730190
vn 0.3600894 -0.8324078 -0.4212278
vn 0.4266796 -0.7123322 -0.5572499
vn 0.4717128 -0.5663451 -0.6758256
vn 0.4934083 -0.4000492 -0.7723399
vn 0.4909130 -0.2198493 -0.8430129
vn 0.4643331 -0.0327005 -0.8850567
vn 0.4147248 0.1541670 -0.8967920
vn 0.3440453 0.3335317 -0.8777183
vn 0.2550695 0.4984636 -0.8285370
vn 0.1512749 0.6425935 -0.7511255
vn 0.0367016 0.7603595 -0.6484647
vn -0.0842082 0.8472214 -0.5245235
vn -0.2067843 0.8998360 -0.3841034
vn -0.3263098 0.9161852 -0.2326514
vn -0.4382023 0.8956539 -0.0760456
vn -0.5381894 0.8390533 0.0796351
vn -0.6224704 0.7485893 0.2283518
vn -0.6878585 0.6277763 0.3643454
vn -0.7318984 0.4812987 0.4823653
vn -0.7529541 0.3148260 0.5778795
vn -0.7502643 0.1347882 0.6472523
vn -0.7239633 -0.0518800 0.6878848
vn -0.6750681 -0.2380130 0.6983071
vn -0.6054340 -0.4164935 0.6782204
vn -0.5176822 -0.5805238 0.6284881
vn -0.4151059 -0.7238763 0.5510810
vn -0.3015561 -0.8411163 0.4489848
vn -0.1813125 -0.9277916 0.3260804
vn -0.0589381 -0.9805896 0.1870036
vn 0.0608824 -0.9974594 0.0369870
vn 0.1828529 -0.9766517 -0.1127668
vn 0.2839534 -0.9206173 -0.2680192
vn 0.3694907 -0.8306157 -0.4165983
vn 0.4361394 -0.7100766 -0.5527871
vn 0.4813022 -0.5636165 -0.6713305
vn 0.5032156 -0.3968626 -0.7676419
vn 0.5010219 -0.2162356 -0.8379852
vn 0.4748032 -0.0286996 -0.8796239
vn 0.4255778 0.1585104 -0.8909310
vn 0.3552581 0.3381706 -0.8714541
vn 0.2665739 0.5033505 -0.8219347
vn 0.1629630 0.6476817 -0.7442792
vn 0.0484351 0.7656050 -0.6414850
vn -0.0725856 0.8525850 -0.5175231
vn -0.1954328 0.9052838 -0.3771834
vn -0.3153798 0.9216890 -0.2258870
vn -0.4278207 0.9011895 -0.0694756
vn -0.5284479 0.8445969 0.0860171
vn -0.6134155 0.7541117 0.2345996
vn -0.6794853 0.6332362 0.3705558
vn -0.7241475 0.4866366 0.4886667
vn -0.7457141 0.3199603 0.5844108
vn -0.7433788 0.1396159 0.6541371
vn -0.7172452 -0.0474747 0.6952018
vn -0.6683189 -0.2341427 0.7060645
vn -0.5984680 -0.4132455 0.6863411
vn -0.5103518 -0.5779373 0.6368120
vn -0.4073220 -0.7219250 0.5593864
vn -0.2932994 -0.8397032 0.4570273
vn -0.1726303 -0.9267599 0.3336389
vn -0.0499262 -0.9797456 0.1939224
vn 0.0701080 -0.9966034 0.0432028
vn 0.1961649 -0.9750719 -0.1037018
vn 0.2970812 -0.9188723 -0.2596467
vn 0.3823311 -0.8286472 -0.4088603
vn 0.4486249 -0.7078548 -0.5455981
vn 0.4934023 -0.5611345 -0.6645918
vn 0.5149319 -0.3941293 -0.7612537
vn 0.5123801 -0.2132678 -0.8318554
vn 0.4858434 -0.0255153 -0.8736733
vn 0.4363453 0.1618960 -0.8850946
vn 0.3657957 0.3417479 -0.8656800
vn 0.2769168 0.5071157 -0.8161806
vn 0.1731366 0.6516362 -0.7385080
vn 0.0584551 0.7697532 -0.6356595
vn -0.0627108 0.8569315 -0.5116012
vn -0.1856985 0.9098302 -0.3711134
vn -0.3057797 0.9264299 -0.2196050
vn -0.4183423 0.9061085 -0.0629049
vn -0.5190677 0.8496625 0.0929638
vn -0.6040952 0.7592746 0.2420148
vn -0.6701690 0.6384275 0.3785285
vn -0.7147623 0.4917691 0.4972706
vn -0.7361717 0.3249328 0.5936917
vn -0.7335818 0.1443216 0.6641001
vn -0.7070951 -0.0431373 0.7058015
vn -0.6577271 -0.2302564 0.7172008
vn -0.5873684 -0.4098619 0.6978622
vn -0.4987119 -0.5750666 0.6485251
vn -0.3951517 -0.7195322 0.5710767
vn -0.2806544 -0.8377109 0.4684800
vn -0.1596089 -0.9250582 0.3446627
vn -0.0366594 -0.9782074 0.2043683
vn 0.0834718 -0.9951010 0.0529765
vn 0.2108543 -0.9730659 -0.0931835
vn 0.3114858 -0.9168286 -0.2498036
vn 0.3963303 -0.8265341 -0.3997045
vn 0.4621226 -0.7056524 -0.5371195
vn 0.5063308 -0.5588321 -0.6567616
vn 0.5272540 -0.3917206 -0.7540280
vn 0.5240875 -0.2107470 -0.8251775
vn 0.4969548 -0.0228735 -0.8674749
vn 0.4469017 0.1646729 -0.8792961
vn 0.3758561 0.3446799 -0.8601907
vn 0.2865532 0.5102268 -0.8108982
vn 0.1824295 0.6549521 -0.7333193
vn 0.0674902 0.7732971 -0.6304416
vn -0.0538456 0.8607195 -0.5062238
vn -0.1769147 0.9138669 -0.3654429
vn -0.2969892 0.9307045 -0.2135098
vn -0.4094583 0.9105924 -0.0562617
vn -0.5100041 0.8543086 0.1002624
vn -0.5947678 0.7640188 0.2500530
vn -0.6604967 0.6431923 0.3873601
vn -0.7046683 0.4964691 0.5069132
vn -0.7255872 0.3294821 0.6041231
vn -0.7224497 0.1486413 0.6752571
vn -0.6953746 -0.0391113 0.7175824
vn -0.6453990 -0.2265672 0.7294707
vn -0.5744390 -0.4065276 0.7104612
vn -0.4852168 -0.5720792 0.6612790
vn -0.3811567 -0.7168597 0.5838080
vn -0.2662539 -0.8353019 0.4810193
vn -0.1449223 -0.9228487 0.3568581
vn -0.0218244 -0.9761289 0.2160927
vn 0.0983078 -0.9930875 0.0641317
vn 0.2238476 -0.9709647 -0.0843785
vn 0.3241205 -0.9146613 -0.2415378
vn 0.4084963 -0.8242996 -0.3919962
vn 0.4737322 -0.7033549 -0.5299714
vn 0.5173217 -0.5564780 -0.6501619
vn 0.5375912 -0.3893155 -0.7479500
vn 0.5337634 -0.2082928 -0.8195796
vn 0.5059877 -0.0203665 -0.8623002
vn 0.4553336 0.1672423 -0.8744720
vn 0.3837495 0.3473262 -0.8556289
vn 0.2939872 0.5129674 -0.8064961
vn 0.1894966 0.6578038 -0.7289618
vn 0.0742924 0.7762723 -0.6260047
vn -0.0471996 0.8638226 -0.5015801
vn -0.1703126 0.9170915 -0.3604675
vn -0.2903176 0.9340317 -0.2080874
vn -0.4026051 0.9139911 -0.0502938
vn -0.5028616 0.8577372 0.1068511
vn -0.5872349 0.7674290 0.2573088
vn -0.6524829 0.6465338 0.3952975
vn -0.6960972 0.4996948 0.5155132
vn -0.7164002 0.3325527 0.6133347
vn -0.7126098 0.1515300 0.6850007
vn -0.6848695 -0.0364168 0.7277552
vn -0.6342435 -0.2240635 0.7399532
vn -0.5626758 -0.4041969 0.7211247
vn -0.4729160 -0.5698918 0.6719925
vn -0.3684133 -0.7147777 0.5944448
vn -0.2531844 -0.8332841 0.4914624
vn -0.1316588 -0.9208549 0.3670044
vn -0.0085084 -0.9741237 0.2258553
vn 0.1115320 -0.9910434 0.0734413
vn 0.2299759 -0.9697393 -0.0819561
vn 0.3298385 -0.9131817 -0.2393860
vn 0.4137134 -0.8225983 -0.3900940
vn 0.4783784 -0.7014728 -0.5282898
vn 0.5213501 -0.5544619 -0.6486649
vn 0.5409789 -0.3872158 -0.7465961
vn 0.5365125 -0.2061611 -0.8183227
vn 0.5081241 -0.0182536 -0.8610904
vn 0.4569058 0.1692883 -0.8732574
vn 0.3848263 0.3492611 -0.8543567
vn 0.2946551 0.5147521 -0.8051141
vn 0.1898562 0.6594046 -0.7274202
vn 0.0744553 0.7776618 -0.6242584
vn -0.0471150 0.8649796 -0.4995902
vn -0.1701847 0.9180018 -0.3582037
vn -0.2900261 0.9346884 -0.2055298
vn -0.4020347 0.9143949 -0.0474341
vn -0.5019063 0.8578976 0.1100081
vn -0.5858023 0.7673639 0.2607457
vn -0.6504972 0.6462702 0.3989840
vn -0.6935031 0.4992683 0.5194080
vn -0.7131652 0.3320070 0.6173870
vn -0.7087261 0.1509153 0.6891530
vn -0.6803549 -0.0370454 0.7319460
vn -0.6291410 -0.2246487 0.7441200
vn -0.5570524 -0.4046817 0.7252071
vn -0.4668601 -0.5702225 0.6759348
vn -0.3620314 -0.7149069 0.5981985
vn -0.2465962 -0.8331731 0.4949878
vn -0.1249927 -0.9204758 0.3702717
vn -0.0018956 -0.9734609 0.2288456
vn 0.1179629 -0.9900942 0.0761465
vn 0.2249912 -0.9703898 -0.0878783
vn 0.3243954 -0.9135719 -0.2452630
vn 0.4077567 -0.8228020 -0.3958931
vn 0.4718721 -0.7015708 -0.5339804
vn 0.5142790 -0.5545392 -0.6542197
vn 0.5333493 -0.3873586 -0.7519919
vn 0.5283518 -0.2064541 -0.8235418
vn 0.4994800 -0.0187767 -0.8661219
vn 0.4478447 0.1684630 -0.8780975
vn 0.3754309 0.3480720 -0.8590096
vn 0.2850212 0.5131509 -0.8095919
vn 0.1800894 0.6573583 -0.7317430
vn 0.0646667 0.7751547 -0.6284532
vn -0.0568131 0.8620143 -0.5036899
vn -0.1796833 0.9145994 -0.3622455
vn -0.2992236 0.9308881 -0.2095535
vn -0.4108413 0.9102523 -0.0514800
vn -0.5102475 0.8534825 0.1059013
vn -0.5936219 0.7627575 0.2565425
vn -0.6577596 0.6415612 0.3946537
vn -0.7001945 0.4945491 0.5149260
vn -0.7192943 0.3273699 0.6127354
vn -0.7143232 0.1464481 0.6843210
vn -0.6854709 -0.0412624 0.7269299
vn -0.6338451 -0.2285461 0.7389229
vn -0.5614292 -0.4082031 0.7198385
vn -0.4710064 -0.5733269 0.6704097
vn -0.3660524 -0.7175693 0.5925369
vn -0.2506016 -0.8353852 0.4892141
vn -0.1290923 -0.9222461 0.3644135
vn -0.0061956 -0.9748140 0.2229334
vn 0.1133641 -0.9910695 0.0702126
vn 0.2019728 -0.9734264 -0.1079261
vn 0.3005355 -0.9163018 -0.2647063
vn 0.3830329 -0.8254261 -0.4146776
vn 0.4462953 -0.7042955 -0.5520764
vn 0.4878928 -0.5575687 -0.6716232
vn 0.5062292 -0.3908873 -0.7687257
vn 0.5006023 -0.2106583 -0.8396549
vn 0.4712310 -0.0238080 -0.8816885
vn 0.4192463 0.1624846 -0.8932140
vn 0.3466475 0.3410633 -0.8737914
vn 0.2562250 0.5050692 -0.8241686
vn 0.1514534 0.6482038 -0.7462531
vn 0.0363572 0.7649705 -0.6430383
vn -0.0846427 0.8508848 -0.5184888
vn -0.2068990 0.9026467 -0.3773880
vn -0.3257162 0.9182669 -0.2251550
vn -0.4365305 0.8971435 -0.0676369
vn -0.5350847 0.8400850 0.0891156
vn -0.6175918 0.7492804 0.2390799
vn -0.6808806 0.6282151 0.3764935
vn -0.7225173 0.4815378 0.4960747
vn -0.7408995 0.3148826 0.5932258
vn -0.7353182 0.1346526 0.6642107
vn -0.7059852 -0.0522259 0.7062983
vn -0.6540259 -0.2385696 0.7178681
vn -0.5814356 -0.4172144 0.6984732
vn -0.4910034 -0.5812914 0.6488574
vn -0.3862053 -0.7244913 0.5709271
vn -0.2710700 -0.8413075 0.4676780
vn -0.1500243 -0.9272481 0.3430798
vn -0.0277224 -0.9790089 0.2019233
vn 0.0911332 -0.9946009 0.0496363
vn 0.1162748 -0.9773773 -0.1766743
vn 0.2116504 -0.9199870 -0.3298911
vn 0.2911059 -0.8297586 -0.4761912
vn 0.3515889 -0.7101752 -0.6099479
vn 0.3907797 -0.5658478 -0.7260217
vn 0.4071804 -0.4023362 -0.8199572
vn 0.4001707 -0.2259328 -0.8881541
vn 0.3700309 -0.0434196 -0.9280043
vn 0.3179286 0.1381928 -0.9379894
vn 0.2458732 0.3119347 -0.9177380
vn 0.1566369 0.4711432 -0.8680374
vn 0.0536480 0.6097165 -0.7908020
vn -0.0591411 0.7223453 -0.6889990
vn -0.1774044 0.8047149 -0.5665347
vn -0.2966078 0.8536685 -0.4281050
vn -0.4121812 0.8673271 -0.2790168
vn -0.5196927 0.8451615 -0.1249859
vn -0.6150172 0.7880135 0.0280802
vn -0.6944942 0.6980649 0.1743078
vn -0.7550678 0.5787561 0.3080812
vn -0.7944046 0.4346564 0.4242583
vn -0.8109845 0.2712909 0.5183680
vn -0.8041601 0.0949297 0.5867835
vn -0.7741831 -0.0876515 0.6268634
vn -0.7221967 -0.2694319 0.6370544
vn -0.6501925 -0.4434161 0.6169538
vn -0.5609348 -0.6029044 0.5673257
vn -0.4578552 -0.7417523 0.4900736
vn -0.3449201 -0.8546088 0.3881674
vn -0.2264774 -0.9371246 0.2655288
vn -0.1070888 -0.9861203 0.1268805
vn 0.0086475 -0.9997108 -0.0224375
vn 0.7922911 0.2011149 0.5760448
vn 0.7974986 0.2046162 0.5675634
vn 0.8017725 0.2099236 0.5595471
vn 0.8049532 0.2168135 0.5523063
vn 0.8069275 0.2250028 0.5461152
vn 0.8076312 0.2341634 0.5412018
vn 0.8070503 0.2439364 0.5377406
vn 0.8052192 0.2539469 0.5358479
vn 0.8022178 0.2638185 0.5355804
vn 0.7981668 0.2731865 0.5369348
vn 0.7932222 0.2817095 0.5398503
vn 0.7875693 0.2890798 0.5442126
vn 0.7814167 0.2950323 0.5498581
vn 0.7749888 0.2993517 0.5565797
vn 0.7685197 0.3018790 0.5641334
vn 0.7622458 0.3025163 0.5722457
vn 0.7563989 0.3012308 0.5806209
vn 0.7511983 0.2980573 0.5889508
vn 0.7468434 0.2930991 0.5969237
vn 0.7435062 0.2865269 0.6042358
vn 0.7413239 0.2785751 0.6106020
vn 0.7403921 0.2695359 0.6157677
vn 0.7407597 0.2597497 0.6195201
vn 0.7424247 0.2495933 0.6216983
vn 0.7453325 0.2394653 0.6222024
vn 0.7493768 0.2297696 0.6209995
vn 0.7544024 0.2208974 0.6181274
vn 0.7602116 0.2132095 0.6136938
vn 0.7665723 0.2070194 0.6078732
vn 0.7732283 0.2025786 0.6008993
vn 0.7799107 0.2000645 0.5930544
vn 0.7863506 0.1995731 0.5846566
vn -0.7970611 -0.2893912 -0.5300437
vn 0.7752220 0.2521473 0.5791827
f 3//3 2//2 1//1
f 4//4 2//2 3//3
f 5//5 4//4 3//3
f 6//6 4//4 5//5
f 7//7 6//6 5//5
f 8//8 6//6 7//7
f 9//9 8//8 7//7
f 10//10 8//8 9//9
f 11//11 10//10 9//9
f 12//12 10//10 11//11
f 13//13 12//12 11//11
f 14//14 12//12 13//13
f 15//15 14//14 13//13
f 16//16 14//14 15//15
f 17//17 16//16 15//15
f 18//18 16//16 17//17
f 19//19 18//18 17//17
f 20//20 18//18 19//19
f 21//21 20//20 19//19
f 22//22 20//20 21//21
f 23//23 22//22 21//21
f 24//24 22//22 23//23
f 25//25 24//24 23//23
f 26//26 24//24 25//25
f 27//27 26//26 25//25
f 28//28 26//26 27//27
f 29//29 28//28 27//27
f 30//30 28//28 29//29
f 31//31 30//30 29//29
f 32//32 30//30 31//31
f 33//33 32//32 31//31
f 34//34 32//32 33//33
f 35//35 34//34 33//33
f 36//36 34//34 35//35
f 37//37 36//36 35//35
f 38//38 36//36 37//37
f 39//39 38//38 37//37
f 40//40 38//38 39//39
f 41//41 40//40 39//39
f 42//42 40//40 41//41
f 43//43 42//42 41//41
f 44//44 42//42 43//43
f 45//45 44//44 43//43
f 46//46 44//44 45//45
f 47//47 46//46 45//45
f 48//48 46//46 47//47
f 49//49 48//48 47//47
f 50//50 48//48 49//49
f 51//51 50//50 49//49
f 52//52 50//50 51//51
f 53//53 52//52 51//51
f 54//54 52//52 53//53
f 55//55 54//54 53//53
f 56//56 54//54 55//55
f 57//57 56//56 55//55
f 58//58 56//56 57//57
f 59//59 58//58 57//57
f 60//60 58//58 59//59
f 61//61 60//60 59//59
f 62//62 60//60 61//61
f 63//63 62//62 61//61
f 64//64 62//62 63//63
f 1//1 64//64 63//63
f 2//2 64//64 1//1
f 4//4 65//65 2//2
f 66//66 65//65 4//4
f 6//6 66//66 4//4
f 67//67 66//66 6//6
f 8//8 67//67 6//6
f 68//68 67//67 8//8
f 10//10 68//68 8//8
f 69//69 68//68 10//10
f 12//12 69//69 10//10
f 70//70 69//69 12//12
f 14//14 70//70 12//12
f 71//71 70//70 14//14
f 16//16 71//71 14//14
f 72//72 71//71 16//16
f 18//18 72//72 16//16
f 73//73 72//72 18//18
f 20//20 73//73 18//18
f 74//74 73//73 20//20
f 22//22 74//74 20//20
f 75//75 74//74 22//22
f 24//24 75//75 22//22
f 76//76 75//75 24//24
f 26//26 76//76 24//24
f 77//77 76//76 26//26
f 28//28 77//77 26//26
f 78//78 77//77 28//28
f 30//30 78//78 28//28
f 79//79 78//78 30//30
f 32//32 79//79 30//30
f 80//80 79//79 32//32
f 34//34 80//80 32//32
f 81//81 80//80 34//34
f 36//36 81//81 34//34
f 82//82 81//81 36//36
f 38//38 82//82 36//36
f 83//83 82//82 38//38
f 40//40 83//83 38//38
f 84//84 83//83 40//40
f 42//42 84//84 40//40
f 85//85 84//84 42//42
f 44//44 85//85 42//42
f 86//86 85//85 44//44
f 46//46 86//86 44//44
f 87//87 86//86 46//46
f 48//48 87//87 46//46
f 88//88 87//87 48//48
f 50//50 88//88 48//48
f 89//89 88//88 50//50
f 52//52 89//89 50//50
f 90//90 89//89 52//52
f 54//54 90//90 52//52
f 91//91 90//90 54//54
f 56//56 91//91 54//54
f 92//92 91//91 56//56
f 58//58 92//92 56//56
f 93//93 92//92 58//58
f 60//60 93//93 58//58
f 94//94 93//93 60//60
f 62//62 94//94 60//60
f 95//95 94//94 62//62
f 64//64 95//95 62//62
f 96//96 95//95 64//64
f 2//2 96//96 64//64
f 65//65 96//96 2//2
f 66//66 97//97 65//65
f 98//98 97//97 66//66
f 67//67 98//98 66//66
f 99//99 98//98 67//67
f 68//68 99//99 67//67
f 100//100 99//99 68//68
f 69//69 100//100 68//68
f 101//101 100//100 69//69
f 70//70 101//101 69//69
f 102//102 101//101 70//70
f 71//71 102//102 70//70
f 103//103 102//102 71//71
f 72//72 103//103 71//71
f 104//104 103//103 72//72
f 73//73 104//104 72//72
f 105//105 104//104 73//73
f 74//74 105//105 73//73
f 106//106 105//105 74//74
f 75//75 106//106 74//74
f 107//107 106//106 75//75
f 76//76 107//107 75//75
f 108//108 107//107 76//76
f 77//77 108//108 76//76
f 109//109 108//108 77//77
f 78//78 109//109 77//77
f 110//110 109//109 78//78
f 79//79 110//110 78//78
f 111//111 110//110 79//79
f 80//80 111//111 79//79
f 112//112 111//111 80//80
f 81//81 112//112 80//80
f 113//113 112//112 81//81
f 82//82 113//113 81//81
f 114//114 113//113 82//82
f 83//83 114//114 82//82
f 115//115 114//114 83//83
f 84//84 115//115 83//83
f 116//116 115//115 84//84
f 85//85 116//116 84//84
f 117//117 116//116 85//85
f 86//86 117//117 85//85
f 118//118 117//117 86//86
f 87//87 118//118 86//86
f 119//119 118//118 87//87
f 88//88 119//119 87//87
f 120//120 119//119 88//88
f 89//89 120//120 88//88
f 121//121 120//120 89//89
f 90//90 121//121 89//89
f 122//122 121//121 90//90
f 91//91 122//122 90//90
f 123//123 122//122 91//91
f 92//92 123//123 91//91
f 124//124 123//123 92//92
f 93//93 124//124 92//92
f 125//125 124//124 93//93
f 94//94 125//125 93//93
f 126//126 125//125 94//94
f 95//95 126//126 94//94
f 127//127 126//126 95//95
f 96//96 127//127 95//95
f 128//128 127//127 96//96
f 65//65 128//128 96//96
f 97//97 128//128 65//65
f 98//98 129//129 97//97
f 130//130 129//129 98//98
f 99//99 130//130 98//98
f 131//131 130//130 99//99
f 100//100 131//131 99//99
f 132//132 131//131 100//100
f 101//101 132//132 100//100
f 133//133 132//132 101//101
f 102//102 133//133 101//101
f 134//134 133//133 102//102
f 103//103 134//134 102//102
f 135//135 134//134 103//103
f 104//104 135//135 103//103
f 136//136 135//135 104//104
f 105//105 136//136 104//104
f 137//137 136//136 105//105
f 106//106 137//137 105//105
f 138//138 137//137 106//106
f 107//107 138//138 106//106
f 139//139 138//138 107//107
f 108//108 139//139 107//107
f 140//140 139//139 108//108
f 109//109 140//140 108//108
f 141//141 140//140 109//109
f 110//110 141//141 109//109
f 142//142 141//141 110//110
f 111//111 142//142 110//110
f 143//143 142//142 111//111
f 112//112 143//143 111//111
f 144//144 143//143 112//112
f 113//113 144//144 112//112
f 145//145 144//144 113//113
f 114//114 145//145 113//113
f 146//146 145//145 114//114
f 115//115 146//146 114//114
f 147//147 146//146 115//115
f 116//116 147//147 115//115
f 148//148 147//147 116//116
f 117//117 148//148 116//116
f 149//149 148//148 117//117
f 118//118 149//149 117//117
f 150//150 149//149 118//118
f 119//119 150//150 118//118
f 151//151 150//150 119//119
f 120//120 151//151 119//119
f 152//152 151//151 120//120
f 121//121 152//152 120//120
f 153//153 152//152 121//121
f 122//122 153//153 121//121
f 154//154 153//153 122//122
f 123//123 154//154 122//122
f 155//155 154//154 123//123
f 124//124 155//155 123//123
f 156//156 155//155 124//124
f 125//125 156//156 124//124
f 157//157 156//156 125//125
f 126//126 157//157 125//125
f 158//158 157//157 126//126
f 127//127 158//158 126//126
f 159//159 158//158 127//127
f 128//128 159//159 127//127
f 160//160 159//159 128//128
f 97//97 160//160 128//128
f 129//129 160//160 97//97
f 130//130 161//161 129//129
f 162//162 161//161 130//130
f 131//131 162//162 130//130
f 163//163 162//162 131//131
f 132//132 163//163 131//131
f 164//164 163//163 132//132
f 133//133 164//164 132//132
f 165//165 164//164 133//133
f 134//134 165//165 133//133
f 166//166 165//165 134//134
f 135//135 166//166 134//134
f 167//167 166//166 135//135
f 136//136 167//167 135//135
f 168//168 167//167 136//136
f 137//137 168//168 136//136
f 169//169 168//168 137//137
f 138//138 169//169 137//137
f 170//170 169//169 138//138
f 139//139 170//170 138//138
f 171//171 170//170 139//139
f 140//140 171//171 139//139
f 172//172 171//171 140//140
f 141//141 172//172 140//140
f 173//173 172//172 141//141
f 142//142 173//173 141//141
f 174//174 173//173 142//142
f 143//143 174//174 142//142
f 175//175 174//174 143//143
f 144//144 175//175 143//143
f 176//176 175//175 144//144
f 145//145 176//176 144//144
f 177//177 176//176 145//145
f 146//146 177//177 145//145
f 178//178 177//177 146//146
f 147//147 178//178 146//146
f 179//179 178//178 147//147
f 148//148 179//179 147//147
f 180//180 179//179 148//148
f 149//149 180//180 148//148
f 181//181 180//180 149//149
f 150//150 181//181 149//149
f 182//182 181//181 150//150
f 151//151 182//182 150//150
f 183//183 182//182 151//151
f 152//152 183//183 151//151
f 184//184 183//183 152//152
f 153//153 184//184 152//152
f 185//185 184//184 153//153
f 154//154 185//185 153//153
f 186//186 185//185 154//154
f 155//155 186//186 154//154
f 187//187 186//186 155//155
f 156//156 187//187 155//155
f 188//188 187//187 156//156
f 157//157 188//188 156//156
f 189//189 188//188 157//157
f 158//158 189//189 157//157
f 190//190 189//189 158//158
f 159//159 190//190 158//158
f 191//191 190//190 159//159
f 160//160 191//191 159//159
f 192//192 191//191 160//160
f 129//129 192//192 160//160
f 161//161 192//192 129//129
f 162//162 193//193 161//161
f 194//194 193//193 162//162
f 163//163 194//194 162//162
f 195//195 194//194 163//163
f 164//164 195//195 163//163
f 196//196 195//195 164//164
f 165//165 196//196 164//164
f 197//197 196//196 165//165
f 166//166 197//197 165//165
f 198//198 197//197 166//166
f 167//167 198//198 166//166
f 199//199 198//198 167//167
f 168//168 199//199 167//167
f 200//200 199//199 168//168
f 169//169 200//200 168//168
f 201//201 200//200 169//169
f 170//170 201//201 169//169
f 202//202 201//201 170//170
f 171//171 202//202 170//170
f 203//203 202//202 171//171
f 172//172 203//203 171//171
f 204//204 203//203 172//172
f 173//173 204//204 172//172
f 205//205 204//204 173//173
f 174//174 205//205 173//173
f 206//206 205//205 174//174
f 175//175 206//206 174//174
f 207//207 206//206 175//175
f 176//176 207//207 175//175
f 208//208 207//207 176//176
f 177//177 208//208 176//176
f 209//209 208//208 177//177
f 178//178 209//209 177//177
f 210//210 209//209 178//178
f 179//179 210//210 178//178
f 211//211 210//210 179//179
f 180//180 211//211 179//179
f 212//212 211//211 180//180
f 181//181 212//212 180//180
f 213//213 212//212 181//181
f 182//182 213//213 181//181
f 214//214 213//213 182//182
f 183//183 214//214 182//182
f 215//215 214//214 183//183
f 184//184 215//215 183//183
f 216//216 215//215 184//184
f 185//185 216//216 184//184
f 217//217 216//216 185//185
f 186//186 217//217 185//185
f 218//218 217//217 186//186
f 187//187 218//218 186//186
f 219//219 218//218 187//187
f 188//188 219//219 187//187
f 220//220 219//219 188//188
f 189//189 220//220 188//188
f 221//221 220//220 189//189
f 190//190 221//221 189//189
f 222//222 221//221 190//190
f 191//191 222//222 190//190
f 223//223 222//222 191//191
f 192//192 223//223 191//191
f 224//224 223//223 192//192
f 161//161 224//224 192//192
f 193//193 224//224 161//161
f 194//194 225//225 193//193
f 226//226 225//225 194//194
f 195//195 226//226 194//194
f 227//227 226//226 195//195
f 196//196 227//227 195//195
f 228//228 227//227 196//196
f 197//197 228//228 196//196
f 229//229 228//228 197//197
f 198//198 229//229 197//197
f 230//230 229//229 198//198
f 199//199 230//230 198//198
f 231//231 230//230 199//199
f 200//200 231//231 199//199
f 232//232 231//231 200//200
f 201//201 232//232 200//200
f 233//233 232//232 201//201
f 202//202 233//233 201//201
f 234//234 233//233 202//202
f 203//203 234//234 202//202
f 235//235 234//234 203//203
f 204//204 235//235 203//203
f 236//236 235//235 204//204
f 205//205 236//236 204//204
f 237//237 236//236 205//205
f 206//206 237//237 205//205
f 238//238 237//237 206//206
f 207//207 238//238 206//206
f 239//239 238//238 207//207
f 208//208 239//239 207//207
f 240//240 239//239 208//208
f 209//209 240//240 208//208
f 241//241 240//240 209//209
f 210//210 241//241 209//209
f 242//242 241//241 210//210
f 211//211 242//242 210//210
f 243//243 242//242 211//211
f 212//212 243//243 211//211
f 244//244 243//243 212//212
f 213//213 244//244 212//212
f 245//245 244//244 213//213
f 214//214 245//245 213//213
f 246//246 245//245 214//214
f 215//215 246//246 214//214
f 247//247 246//246 215//215
f 216//216 247//247 215//215
f 248//248 247//247 216//216
f 217//217 248//248 216//216
f 249//249 248//248 217//217
f 218//218 249//249 217//217
f 250//250 249//249 218//218
f 219//219 250//250 218//218
f 251//251 250//250 219//219
f 220//220 251//251 219//219
f 252//252 251//251 220//220
f 221//221 252//252 220//220
f 253//253 252//252 221//221
f 222//222 253//253 221//221
f 254//254 253//253 222//222
f 223//223 254//254 222//222
f 255//255 254//254 223//223
f 224//224 255//255 223//223
f 256//256 255//255 224//224
f 193//193 256//256 224//224
f 225//225 256//256 193//193
f 226//226 257//257 225//225
f 258//258 257//257 226//226
f 227//227 258//258 226//226
f 259//259 258//258 227//227
f 228//228 259//259 227//227
f 260//260 259//259 228//228
f 229//229 260//260 228//228
f 261//261 260//260 229//229
f 230//230 261//261 229//229
f 262//262 261//261 230//230
f 231//231 262//262 230//230
f 263//263 262//262 231//231
f 232//232 263//263 231//231
f 264//264 263//263 232//232
f 233//233 264//264 232//232
f 265//265 264//264 233//233
f 234//234 265//265 233//233
f 266//266 265//265 234//234
f 235//235 266//266 234//234
f 267//267 266//266 235//235
f 236//236 267//267 235//235
f 268//268 267//267 236//236
f 237//237 268//268 236//236
f 269//269 268//268 237//237
f 238//238 269//269 237//237
f 270//270 269//269 238//238
f 239//239 270//270 238//238
f 271//271 270//270 239//239
f 240//240 271//271 239//239
f 272//272 271//271 240//240
f 241//241 272//272 240//240
f 273//273 272//272 241//241
f 242//242 273//273 241//241
f 274//274 273//273 242//242
f 243//243 274//274 242//242
f 275//275 274//274 243//243
f 244//244 275//275 243//243
f 276//276 275//275 244//244
f 245//245 276//276 244//244
f 277//277 276//276 245//245
f 246//246 277//277 245//245
f 278//278 277//277 246//246
f 247//247 278//278 246//246
f 279//279 278//278 247//247
f 248//248 279//279 247//247
f 280//280 279//279 248//248
f 249//249 280//280 248//248
f 281//281 280//280 249//249
f 250//250 281//281 249//249
f 282//282 281//281 250//250
f 251//251 282//282 250//250
f 283//283 282//282 251//251
f 252//252 283//283 251//251
f 284//284 283//283 252//252
f 253//253 284//284 252//252
f 285//285 284//284 253//253
f 254//254 285//285 253//253
f 286//286 285//285 254//254
f 255//255 286//286 254//254
f 287//287 286//286 255//255
f 256//256 287//287 255//255
f 288//288 287//287 256//256
f 225//225 288//288 256//256
f 257//257 288//288 225//225
f 258//258 289//289 257//257
f 290//290 289//289 258//258
f 259//259 290//290 258//258
f 291//291 290//290 259//259
f 260//260 291//291 259//259
f 292//292 291//291 260//260
f 261//261 292//292 260//260
f 293//293 292//292 261//261
f 262//262 293//293 261//261
f 294//294 293//293 262//262
f 263//263 294//294 262//262
f 295//295 294//294 263//263
f 264//264 295//295 263//263
f 296//296 295//295 264//264
f 265//265 296//296 264//264
f 297//297 296//296 265//265
f 266//266 297//297 265//265
f 298//298 297//297 266//266
f 267//267 298//298 266//266
f 299//299 298//298 267//267
f 268//268 299//299 267//267
f 300//300 299//299 268//268
f 269//269 300//300 268//268
f 301//301 300//300 269//269
f 270//270 301//301 269//269
f 302//302 301//301 270//270
f 271//271 302//302 270//270
f 303//303 302//302 271//271
f 272//272 303//303 271//271
f 304//304 303//303 272//272
f 273//273 304//304 272//272
f 305//305 304//304 273//273
f 274//274 305//305 273//273
f 306//306 305//305 274//274
f 275//275 306//306 274//274
f 307//307 306//306 275//275
f 276//276 307//307 275//275
f 308//308 307//307 276//276
f 277//277 308//308 276//276
f 309//309 308//308 277//277
f 278//278 309//309 277//277
f 310//310 309//309 278//278
f 279//279 310//310 278//278
f 311//311 310//310 279//279
f 280//280 311//311 279//279
f 312//312 311//311 280//280
f 281//281 312//312 280//280
f 313//313 312//312 281//281
f 282//282 313//313 281//281
f 314//314 313//313 282//282
f 283//283 314//314 282//282
f 315//315 314//314 283//283
f 284//284 315//315 283//283
f 316//316 315//315 284//284
f 285//285 316//316 284//284
f 317//317 316//316 285//285
f 286//286 317//317 285//285
f 318//318 317//317 286//286
f 287//287 318//318 286//286
f 319//319 318//318 287//287
f 288//288 319//319 287//287
f 320//320 319//319 288//288
f 257//257 320//320 288//288
f 289//289 320//320 257//257
f 290//290 321//321 289//289
f 322//322 321//321 290//290
f 291//291 322//322 290//290
f 323//323 322//322 291//291
f 292//292 323//323 291//291
f 324//324 323//323 292//292
f 293//293 324//324 292//292
f 325//325 324//324 293//293
f 294//294 325//325 293//293
f 326//326 325//325 294//294
f 295//295 326//326 294//294
f 327//327 326//326 295//295
f 296//296 327//327 295//295
f 328//328 327//327 296//296
f 297//297 328//328 296//296
f 329//329 328//328 297//297
f 298//298 329//329 297//297
f 330//330 329//329 298//298
f 299//299 330//330 298//298
f 331//331 330//330 299//299
f 300//300 331//331 299//299
f 332//332 331//331 300//300
f 301//301 332//332 300//300
f 333//333 332//332 301//301
f 302//302 333//333 301//301
f 334//334 333//333 302//302
f 303//303 334//334 302//302
f 335//335 334//334 303//303
f 304//304 335//335 303//303
f 336//336 335//335 304//304
f 305//305 336//336 304//304
f 337//337 336//336 305//305
f 306//306 337//337 305//305
f 338//338 337//337 306//306
f 307//307 338//338 306//306
f 339//339 338//338 307//307
f 308//308 339//339 307//307
f 340//340 339//339 308//308
f 309//309 340//340 308//308
f 341//341 340//340 309//309
f 310//310 341//341 309//309
f 342//342 341//341 310//310
f 311//311 342//342 310//310
f 343//343 342//342 311//311
f 312//312 343//343 311//311
f 344//344 343//343 312//312
f 313//313 344//344 312//312
f 345//345 344//344 313//313
f 314//314 345//345 313//313
f 346//346 345//345 314//314
f 315//315 346//346 314//314
f 347//347 346//346 315//315
f 316//316 347//347 315//315
f 348//348 347//347 316//316
f 317//317 348//348 316//316
f 349//349 348//348 317//317
f 318//318 349//349 317//317
f 350//350 349//349 318//318
f 319//319 350//350 318//318
f 351//351 350//350 319//319
f 320//320 351//351 319//319
f 352//352 351//351 320//320
f 289//289 352//352 320//320
f 321//321 352//352 289//289
f 322//322 353//353 321//321
f 354//354 353//353 322//322
f 323//323 354//354 322//322
f 355//355 354//354 323//323
f 324//324 355//355 323//323
f 356//356 355//355 324//324
f 325//325 356//356 324//324
f 357//357 356//356 325//325
f 326//326 357//357 325//325
f 358//358 357//357 326//326
f 327//327 358//358 326//326
f 359//359 358//358 327//327
f 328//328 359//359 327//327
f 360//360 359//359 328//328
f 329//329 360//360 328//328
f 361//361 360//360 329//329
f 330//330 361//361 329//329
f 362//362 361//361 330//330
f 331//331 362//362 330//330
f 363//363 362//362 331//331
f 332//332 363//363 331//331
f 364//364 363//363 332//332
f 333//333 364//364 332//332
f 365//365 364//364 333//333
f 334//334 365//365 333//333
f 366//366 365//365 334//334
f 335//335 366//366 334//334
f 367//367 366//366 335//335
f 336//336 367//367 335//335
f 368//368 367//367 336//336
f 337//337 368//368 336//336
f 369//369 368//368 337//337
f 338//338 369//369 337//337
f 370//370 369//369 338//338
f 339//339 370//370 338//338
f 371//371 370//370 339//339
f 340//340 371//371 339//339
f 372//372 371//371 340//340
f 341//341 372//372 340//340
f 373//373 372//372 341//341
f 342//342 373//373 341//341
f 374//374 373//373 342//342
f 343//343 374//374 342//342
f 375//375 374//374 343//343
f 344//344 375//375 343//343
f 376//376 375//375 344//344
f 345//345 376//376 344//344
f 377//377 376//376 345//345
f 346//346 377//377 345//345
f 378//378 377//377 346//346
f 347//347 378//378 346//346
f 379//379 378//378 347//347
f 348//348 379//379 347//347
f 380//380 379//379 348//348
f 349//349 380//380 348//348
f 381//381 380//380 349//349
f 350//350 381//381 349//349
f 382//382 381//381 350//350
f 351//351 382//382 350//350
f 383//383 382//382 351//351
f 352//352 383//383 351//351
f 384//384 383//383 352//352
f 321//321 384//384 352//352
f 353//353 384//384 321//321
f 354//354 385//385 353//353
f 386//386 385//385 354//354
f 355//355 386//386 354//354
f 387//387 386//386 355//355
f 356//356 387//387 355//355
f 388//388 387//387 356//356
f 357//357 388//388 356//356
f 389//389 388//388 357//357
f 358//358 389//389 357//357
f 390//390 389//389 358//358
f 359//359 390//390 358//358
f 391//391 390//390 359//359
f 360//360 391//391 359//359
f 392//392 391//391 360//360
f 361//361 392//392 360//360
f 393//393 392//392 361//361
f 362//362 393//393 361//361
f 394//394 393//393 362//362
f 363//363 394//394 362//362
f 395//395 394//394 363//363
f 364//364 395//395 363//363
f 396//396 395//395 364//364
f 365//365 396//396 364//364
f 397//397 396//396 365//365
f 366//366 397//397 365//365
f 398//398 397//397 366//366
f 367//367 398//398 366//366
f 399//399 398//398 367//367
f 368//368 399//399 367//367
f 400//400 399//399 368//368
f 369//369 400//400 368//368
f 401//401 400//400 369//369
f 370//370 401//401 369//369
f 402//402 401//401 370//370
f 371//371 402//402 370//370
f 403//403 402//402 371//371
f 372//372 403//403 371//371
f 404//404 403//403 372//372
f 373//373 404//404 372//372
f 405//405 404//404 373//373
f 374//374 405//405 373//373
f 406//406 405//405 374//374
f 375//375 406//406 374//374
f 407//407 406//406 375//375
f 376//376 407//407 375//375
f 408//408 407//407 376//376
f 377//377 408//408 376//376
f 409//409 408//408 377//377
f 378//378 409//409 377//377
f 410//410 409//409 378//378
f 379//379 410//410 378//378
f 411//411 410//410 379//379
f 380//380 411//411 379//379
f 412//412 411//411 380//380
f 381//381 412//412 380//380
f 413//413 412//412 381//381
f 382//382 413//413 381//381
f 414//414 413//413 382//382
f 383//383 414//414 382//382
f 415//415 414//414 383//383
f 384//384 415//415 383//383
f 416//416 415//415 384//384
f 353//353 416//416 384//384
f 385//385 416//416 353//353
f 386//386 417//417 385//385
f 418//418 417//417 386//386
f 387//387 418//418 386//386
f 419//419 418//418 387//387
f 388//388 419//419 387//387
f 420//420 419//419 388//388
f 389//389 420//420 388//388
f 421//421 420//420 389//389
f 390//390 421//421 389//389
f 422//422 421//421 390//390
f 391//391 422//422 390//390
f 423//423 422//422 391//391
f 392//392 423//423 391//391
f 424//424 423//423 392//392
f 393//393 424//424 392//392
f 425//425 424//424 393//393
f 394//394 425//425 393//393
f 426//426 425//425 394//394
f 395//395 426//426 394//394
f 427//427 426//426 395//395
f 396//396 427//427 395//395
f 428//428 427//427 396//396
f 397//397 428//428 396//396
f 429//429 428//428 397//397
f 398//398 429//429 397//397
f 430//430 429//429 398//398
f 399//399 430//430 398//398
f 431//431 430//430 399//399
f 400//400 431//431 399//399
f 432//432 431//431 400//400
f 401//401 432//432 400//400
f 433//433 432//432 401//401
f 402//402 433//433 401//401
f 434//434 433//433 402//402
f 403//403 434//434 402//402
f 435//435 434//434 403//403
f 404//404 435//435 403//403
f 436//436 435//435 404//404
f 405//405 436//436 404//404
f 437//437 436//436 405//405
f 406//406 437//437 405//405
f 438//438 437//437 406//406
f 407//407 438//438 406//406
f 439//439 438//438 407//407
f 408//408 439//439 407//407
f 440//440 439//439 408//408
f 409//409 440//440 408//408
f 441//441 440//440 409//409
f 410//410 441//441 409//409
f 442//442 441//441 410//410
f 411//411 442//442 410//410
f 443//443 442//442 411//411
f 412//412 443//443 411//411
f 444//444 443//443 412//412
f 413//413 444//444 412//412
f 445//445 444//444 413//413
f 414//414 445//445 413//413
f 446//446 445//445 414//414
f 415//415 446//446 414//414
f 447//447 446//446 415//415
f 416//416 447//447 415//415
f 448//448 447//447 416//416
f 385//385 448//448 416//416
f 417//417 448//448 385//385
f 418//418 449//449 417//417
f 450//450 449//449 418//418
f 419//419 450//450 418//418
f 451//451 450//450 419//419
f 420//420 451//451 419//419
f 452//452 451//451 420//420
f 421//421 452//452 420//420
f 453//453 452//452 421//421
f 422//422 453//453 421//421
f 454//454 453//453 422//422
f 423//423 454//454 422//422
f 455//455 454//454 423//423
f 424//424 455//455 423//423
f 456//456 455//455 424//424
f 425//425 456//456 424//424
f 457//457 456//456 425//425
f 426//426 457//457 425//425
f 458//458 457//457 426//426
f 427//427 458//458 426//426
f 459//459 458//458 427//427
f 428//428 459//459 427//427
f 460//460 459//459 428//428
f 429//429 460//460 428//428
f 461//461 460//460 429//429
f 430//430 461//461 429//429
f 462//462 461//461 430//430
f 431//431 462//462 430//430
f 463//463 462//462 431//431
f 432//432 463//463 431//431
f 464//464 463//463 432//432
f 433//433 464//464 432//432
f 465//465 464//464 433//433
f 434//434 465//465 433//433
f 466//466 465//465 434//434
f 435//435 466//466 434//434
f 467//467 466//466 435//435
f 436//436 467//467 435//435
f 468//468 467//467 436//436
f 437//437 468//468 436//436
f 469//469 468//468 437//437
f 438//438 469//469 437//437
f 470//470 469//469 438//438
f 439//439 470//470 438//438
f 471//471 470//470 439//439
f 440//440 471//471 439//439
f 472//472 471//471 440//440
f 441//441 472//472 440//440
f 473//473 472//472 441//441
f 442//442 473//473 441//441
f 474//474 473//473 442//442
f 443//443 474//474 442//442
f 475//475 474//474 443//443
f 444//444 475//475 443//443
f 476//476 475//475 444//444
f 445//445 476//476 444//444
f 477//477 476//476 445//445
f 446//446 477//477 445//445
f 478//478 477//477 446//446
f 447//447 478//478 446//446
f 479//479 478//478 447//447
f 448//448 479//479 447//447
f 480//480 479//479 448//448
f 417//417 480//480 448//448
f 449//449 480//480 417//417
f 450//450 481//481 449//449
f 482//482 481//481 450//450
f 451//451 482//482 450//450
f 483//483 482//482 451//451
f 452//452 483//483 451//451
f 484//484 483//483 452//452
f 453//453 484//484 452//452
f 485//485 484//484 453//453
f 454//454 485//485 453//453
f 486//486 485//485 454//454
f 455//455 486//486 454//454
f 487//487 486//486 455//455
f 456//456 487//487 455//455
f 488//488 487//487 456//456
f 457//457 488//488 456//456
f 489//489 488//488 457//457
f 458//458 489//489 457//457
f 490//490 489//489 458//458
f 459//459 490//490 458//458
f 491//491 490//490 459//459
f 460//460 491//491 459//459
f 492//492 491//491 460//460
f 461//461 492//492 460//460
f 493//493 492//492 461//461
f 462//462 493//493 461//461
f 494//494 493//493 462//462
f 463//463 494//494 462//462
f 495//495 494//494 463//463
f 464//464 495//495 463//463
f 496//496 495//495 464//464
f 465//465 496//496 464//464
f 497//497 496//496 465//465
f 466//466 497//497 465//465
f 498//498 497//497 466//466
f 467//467 498//498 466//466
f 499//499 498//498 467//467
f 468//468 499//499 467//467
f 500//500 499//499 468//468
f 469//469 500//500 468//468
f 501//501 500//500 469//469
f 470//470 501//501 469//469
f 502//502 501//501 470//470
f 471//471 502//502 470//470
f 503//503 502//502 471//471
f 472//472 503//503 471//471
f 504//504 503//503 472//472
f 473//473 504//504 472//472
f 505//505 504//504 473//473
f 474//474 505//505 473//473
f 506//506 505//505 474//474
f 475//475 506//506 474//474
f 507//507 506//506 475//475
f 476//476 507//507 475//475
f 508//508 507//507 476//476
f 477//477 508//508 476//476
f 509//509 508//508 477//477
f 478//478 509//509 477//477
f 510//510 509//509 478//478
f 479//479 510//510 478//478
f 511//511 510//510 479//479
f 480//480 511//511 479//479
f 512//512 511//511 480//480
f 449//449 512//512 480//480
f 481//481 512//512 449//449
f 482//482 513//513 481//481
f 514//514 513//513 482//482
f 483//483 514//514 482//482
f 515//515 514//514 483//483
f 484//484 515//515 483//483
f 516//516 515//515 484//484
f 485//485 516//516 484//484
f 517//517 516//516 485//485
f 486//486 517//517 485//485
f 518//518 517//517 486//486
f 487//487 518//518 486//486
f 519//519 518//518 487//487
f 488//488 519//519 487//487
f 520//520 519//519 488//488
f 489//489 520//520 488//488
f 521//521 520//520 489//489
f 490//490 521//521 489//489
f 522//522 521//521 490//490
f 491//491 522//522 490//490
f 523//523 522//522 491//491
f 492//492 523//523 491//491
f 524//524 523//523 492//492
f 493//493 524//524 492//492
f 525//525 524//524 493//493
f 494//494 525//525 493//493
f 526//526 525//525 494//494
f 495//495 526//526 494//494
f 527//527 526//526 495//495
f 496//496 527//527 495//495
f 528//528 527//527 496//496
f 497//497 528//528 496//496
f 529//529 528//528 497//497
f 498//498 529//529 497//497
f 530//530 529//529 498//498
f 499//499 530//530 498//498
f 531//531 530//530 499//499
f 500//500 531//531 499//499
f 532//532 531//531 500//500
f 501//501 532//532 500//500
f 533//533 532//532 501//501
f 502//502 533//533 501//501
f 534//534 533//533 502//502
f 503//503 534//534 502//502
f 535//535 534//534 503//503
f 504//504 535//535 503//503
f 536//536 535//535 504//504
f 505//505 536//536 504//504
f 537//537 536//536 505//505
f 506//506 537//537 505//505
f 538//538 537//537 506//506
f 507//507 538//538 506//506
f 539//539 538//538 507//507
f 508//508 539//539 507//507
f 540//540 539//539 508//508
f 509//509 540//540 508//508
f 541//541 540//540 509//509
f 510//510 541//541 509//509
f 542//542 541//541 510//510
f 511//511 542//542 510//510
f 543//543 542//542 511//511
f 512//512 543//543 511//511
f 544//544 543//543 512//512
f 481//481 544//544 512//512
f 513//513 544//544 481//481
f 514//514 545//545 513//513
f 546//546 545//545 514//514
f 515//515 546//546 514//514
f 547//547 546//546 515//515
f 516//516 547//547 515//515
f 548//548 547//547 516//516
f 517//517 548//548 516//516
f 549//549 548//548 517//517
f 518//518 549//549 517//517
f 550//550 549//549 518//518
f 519//519 550//550 518//518
f 551//551 550//550 519//519
f 520//520 551//551 519//519
f 552//552 551//551 520//520
f 521//521 552//552 520//520
f 553//553 552//552 521//521
f 522//522 553//553 521//521
f 554//554 553//553 522//522
f 523//523 554//554 522//522
f 555//555 554//554 523//523
f 524//524 555//555 523//523
f 556//556 555//555 524//524
f 525//525 556//556 524//524
f 557//557 556//556 525//525
f 526//526 557//557 525//525
f 558//558 557//557 526//526
f 527//527 558//558 526//526
f 559//559 558//558 527//527
f 528//528 559//559 527//527
f 560//560 559//559 528//528
f 529//529 560//560 528//528
f 561//561 560//560 529//529
f 530//530 561//561 529//529
f 562//562 561//561 530//530
f 531//531 562//562 530//530
f 563//563 562//562 531//531
f 532//532 563//563 531//531
f 564//564 563//563 532//532
f 533//533 564//564 532//532
f 565//565 564//564 533//533
f 534//534 565//565 533//533
f 566//566 565//565 534//534
f 535//535 566//566 534//534
f 567//567 566//566 535//535
f 536//536 567//567 535//535
f 568//568 567//567 536//536
f 537//537 568//568 536//536
f 569//569 568//568 537//537
f 538//538 569//569 537//537
f 570//570 569//569 538//538
f 539//539 570//570 538//538
f 571//571 570//570 539//539
f 540//540 571//571 539//539
f 572//572 571//571 540//540
f 541//541 572//572 540//540
f 573//573 572//572 541//541
f 542//542 573//573 541//541
f 574//574 573//573 542//542
f 543//543 574//574 542//542
f 575//575 574//574 543//543
f 544//544 575//575 543//543
f 576//576 575//575 544//544
f 513//513 576//576 544//544
f 545//545 576//576 513//513
f 577//577 3//3 1//1
f 578//578 545//545 546//546
f 577//577 5//5 3//3
f 578//578 546//546 547//547
f 577//577 7//7 5//5
f 578//578 547//547 548//548
f 577//577 9//9 7//7
f 578//578 548//548 549//549
f 577//577 11//11 9//9
f 578//578 549//549 550//550
f 577//577 13//13 11//11
f 578//578 550//550 551//551
f 577//577 15//15 13//13
f 578//578 551//551 552//552
f 577//577 17//17 15//15
f 578//578 552//552 553//553
f 577//577 19//19 17//17
f 578//578 553//553 554//554
f 577//577 21//21 19//19
f 578//578 554//554 555//555
f 577//577 23//23 21//21
f 578//578 555//555 556//556
f 577//577 25//25 23//23
f 578//578 556//556 557//557
f 577//577 27//27 25//25
f 578//578 557//557 558//558
f 577//577 29//29 27//27
f 578//578 558//558 559//559
f 577//577 31//31 29//29
f 578//578 559//559 560//560
f 577//577 33//33 31//31
f 578//578 560//560 561//561
f 577//577 35//35 33//33
f 578//578 561//561 562//562
f 577//577 37//37 35//35
f 578//578 562//562 563//563
f 577//577 39//39 37//37
f 578//578 563//563 564//564
f 577//577 41//41 39//39
f 578//578 564//564 565//565
f 577//577 43//43 41//41
f 578//578 565//565 566//566
f 577//577 45//45 43//43
f 578//578 566//566 567//567
f 577//577 47//47 45//45
f 578//578 567//567 568//568
f 577//577 49//49 47//47
f 578//578 568//568 569//569
f 577//577 51//51 49//49
f 578//578 569//569 570//570
f 577//577 53//53 51//51
f 578//578 570//570 571//571
f 577//577 55//55 53//53
f 578//578 571//571 572//572
f 577//577 57//57 55//55
f 578//578 572//572 573//573
f 577//577 59//59 57//57
f 578//578 573//573 574//574
f 577//577 61//61 59//59
f 578//578 574//574 575//575
f 577//577 63//63 61//61
f 578//578 575//575 576//576
f 577//577 1//1 63//63
f 578//578 576//576 545//545
